ISO-10303-21;
HEADER;
/* Generated by software containing ST-Developer
 * from STEP Tools, Inc. (www.steptools.com) 
 */

FILE_DESCRIPTION(
/* description */ (''),
/* implementation_level */ '2;1');

FILE_NAME(
/* name */ 'og front BACK plate  4square.step',
/* time_stamp */ '2026-08-05T16:16:14-04:00',
/* author */ (''),
/* organization */ (''),
/* preprocessor_version */ 'ST-DEVELOPER v20.1',
/* originating_system */ 'Autodesk Translation Framework v15.8.0.0',
/* authorisation */ '');

FILE_SCHEMA (('AUTOMOTIVE_DESIGN { 1 0 10303 214 3 1 1 }'));
ENDSEC;

DATA;
#10=MECHANICAL_DESIGN_GEOMETRIC_PRESENTATION_REPRESENTATION('',(#13,#14),
#1950);
#11=SHAPE_REPRESENTATION_RELATIONSHIP('SRR','None',#1957,#12);
#12=ADVANCED_BREP_SHAPE_REPRESENTATION('',(#15,#16),#1949);
#13=STYLED_ITEM('',(#1966),#15);
#14=STYLED_ITEM('',(#1966),#16);
#15=MANIFOLD_SOLID_BREP('Body1',#1209);
#16=MANIFOLD_SOLID_BREP('Body3',#1210);
#17=CYLINDRICAL_SURFACE('',#1229,3.99999999999999);
#18=CYLINDRICAL_SURFACE('',#1232,4.00000000000003);
#19=CYLINDRICAL_SURFACE('',#1236,1.2);
#20=CYLINDRICAL_SURFACE('',#1241,1.2);
#21=CYLINDRICAL_SURFACE('',#1286,1.19999999999999);
#22=CYLINDRICAL_SURFACE('',#1290,1.2);
#23=CYLINDRICAL_SURFACE('',#1293,4.00000000000014);
#24=CYLINDRICAL_SURFACE('',#1297,4.);
#25=FACE_BOUND('',#94,.T.);
#26=FACE_BOUND('',#95,.T.);
#27=FACE_BOUND('',#120,.T.);
#28=FACE_BOUND('',#121,.T.);
#29=FACE_BOUND('',#133,.T.);
#30=FACE_BOUND('',#134,.T.);
#31=FACE_BOUND('',#159,.T.);
#32=FACE_BOUND('',#160,.T.);
#33=FACE_OUTER_BOUND('',#93,.T.);
#34=FACE_OUTER_BOUND('',#96,.T.);
#35=FACE_OUTER_BOUND('',#97,.T.);
#36=FACE_OUTER_BOUND('',#98,.T.);
#37=FACE_OUTER_BOUND('',#99,.T.);
#38=FACE_OUTER_BOUND('',#100,.T.);
#39=FACE_OUTER_BOUND('',#101,.T.);
#40=FACE_OUTER_BOUND('',#102,.T.);
#41=FACE_OUTER_BOUND('',#103,.T.);
#42=FACE_OUTER_BOUND('',#104,.T.);
#43=FACE_OUTER_BOUND('',#105,.T.);
#44=FACE_OUTER_BOUND('',#106,.T.);
#45=FACE_OUTER_BOUND('',#107,.T.);
#46=FACE_OUTER_BOUND('',#108,.T.);
#47=FACE_OUTER_BOUND('',#109,.T.);
#48=FACE_OUTER_BOUND('',#110,.T.);
#49=FACE_OUTER_BOUND('',#111,.T.);
#50=FACE_OUTER_BOUND('',#112,.T.);
#51=FACE_OUTER_BOUND('',#113,.T.);
#52=FACE_OUTER_BOUND('',#114,.T.);
#53=FACE_OUTER_BOUND('',#115,.T.);
#54=FACE_OUTER_BOUND('',#116,.T.);
#55=FACE_OUTER_BOUND('',#117,.T.);
#56=FACE_OUTER_BOUND('',#118,.T.);
#57=FACE_OUTER_BOUND('',#119,.T.);
#58=FACE_OUTER_BOUND('',#122,.T.);
#59=FACE_OUTER_BOUND('',#123,.T.);
#60=FACE_OUTER_BOUND('',#124,.T.);
#61=FACE_OUTER_BOUND('',#125,.T.);
#62=FACE_OUTER_BOUND('',#126,.T.);
#63=FACE_OUTER_BOUND('',#127,.T.);
#64=FACE_OUTER_BOUND('',#128,.T.);
#65=FACE_OUTER_BOUND('',#129,.T.);
#66=FACE_OUTER_BOUND('',#130,.T.);
#67=FACE_OUTER_BOUND('',#131,.T.);
#68=FACE_OUTER_BOUND('',#132,.T.);
#69=FACE_OUTER_BOUND('',#135,.T.);
#70=FACE_OUTER_BOUND('',#136,.T.);
#71=FACE_OUTER_BOUND('',#137,.T.);
#72=FACE_OUTER_BOUND('',#138,.T.);
#73=FACE_OUTER_BOUND('',#139,.T.);
#74=FACE_OUTER_BOUND('',#140,.T.);
#75=FACE_OUTER_BOUND('',#141,.T.);
#76=FACE_OUTER_BOUND('',#142,.T.);
#77=FACE_OUTER_BOUND('',#143,.T.);
#78=FACE_OUTER_BOUND('',#144,.T.);
#79=FACE_OUTER_BOUND('',#145,.T.);
#80=FACE_OUTER_BOUND('',#146,.T.);
#81=FACE_OUTER_BOUND('',#147,.T.);
#82=FACE_OUTER_BOUND('',#148,.T.);
#83=FACE_OUTER_BOUND('',#149,.T.);
#84=FACE_OUTER_BOUND('',#150,.T.);
#85=FACE_OUTER_BOUND('',#151,.T.);
#86=FACE_OUTER_BOUND('',#152,.T.);
#87=FACE_OUTER_BOUND('',#153,.T.);
#88=FACE_OUTER_BOUND('',#154,.T.);
#89=FACE_OUTER_BOUND('',#155,.T.);
#90=FACE_OUTER_BOUND('',#156,.T.);
#91=FACE_OUTER_BOUND('',#157,.T.);
#92=FACE_OUTER_BOUND('',#158,.T.);
#93=EDGE_LOOP('',(#761,#762,#763,#764,#765,#766,#767,#768,#769,#770,#771,
#772,#773,#774));
#94=EDGE_LOOP('',(#775));
#95=EDGE_LOOP('',(#776));
#96=EDGE_LOOP('',(#777,#778,#779,#780));
#97=EDGE_LOOP('',(#781,#782,#783,#784));
#98=EDGE_LOOP('',(#785,#786,#787,#788));
#99=EDGE_LOOP('',(#789,#790,#791,#792));
#100=EDGE_LOOP('',(#793,#794,#795,#796,#797,#798));
#101=EDGE_LOOP('',(#799,#800,#801,#802));
#102=EDGE_LOOP('',(#803,#804,#805,#806,#807,#808));
#103=EDGE_LOOP('',(#809,#810,#811,#812));
#104=EDGE_LOOP('',(#813,#814,#815,#816,#817,#818));
#105=EDGE_LOOP('',(#819,#820,#821,#822));
#106=EDGE_LOOP('',(#823,#824,#825,#826,#827,#828,#829,#830));
#107=EDGE_LOOP('',(#831,#832,#833,#834));
#108=EDGE_LOOP('',(#835,#836,#837,#838));
#109=EDGE_LOOP('',(#839,#840,#841,#842));
#110=EDGE_LOOP('',(#843,#844,#845,#846));
#111=EDGE_LOOP('',(#847,#848,#849,#850));
#112=EDGE_LOOP('',(#851,#852,#853,#854,#855,#856,#857,#858));
#113=EDGE_LOOP('',(#859,#860,#861,#862));
#114=EDGE_LOOP('',(#863,#864,#865,#866));
#115=EDGE_LOOP('',(#867,#868,#869,#870));
#116=EDGE_LOOP('',(#871,#872,#873,#874));
#117=EDGE_LOOP('',(#875,#876,#877,#878));
#118=EDGE_LOOP('',(#879,#880,#881,#882));
#119=EDGE_LOOP('',(#883,#884,#885,#886,#887,#888,#889,#890,#891,#892,#893,
#894,#895,#896,#897,#898,#899,#900,#901,#902,#903,#904));
#120=EDGE_LOOP('',(#905));
#121=EDGE_LOOP('',(#906));
#122=EDGE_LOOP('',(#907,#908,#909,#910));
#123=EDGE_LOOP('',(#911,#912,#913,#914,#915,#916));
#124=EDGE_LOOP('',(#917,#918,#919,#920));
#125=EDGE_LOOP('',(#921,#922,#923,#924));
#126=EDGE_LOOP('',(#925,#926,#927,#928));
#127=EDGE_LOOP('',(#929,#930,#931,#932));
#128=EDGE_LOOP('',(#933,#934,#935,#936));
#129=EDGE_LOOP('',(#937,#938,#939,#940));
#130=EDGE_LOOP('',(#941,#942,#943,#944,#945,#946));
#131=EDGE_LOOP('',(#947,#948,#949,#950,#951,#952));
#132=EDGE_LOOP('',(#953,#954,#955,#956,#957,#958,#959,#960,#961,#962,#963,
#964,#965,#966));
#133=EDGE_LOOP('',(#967));
#134=EDGE_LOOP('',(#968));
#135=EDGE_LOOP('',(#969,#970,#971,#972,#973,#974));
#136=EDGE_LOOP('',(#975,#976,#977,#978));
#137=EDGE_LOOP('',(#979,#980,#981,#982));
#138=EDGE_LOOP('',(#983,#984,#985,#986));
#139=EDGE_LOOP('',(#987,#988,#989,#990));
#140=EDGE_LOOP('',(#991,#992,#993,#994));
#141=EDGE_LOOP('',(#995,#996,#997,#998,#999,#1000,#1001,#1002));
#142=EDGE_LOOP('',(#1003,#1004,#1005,#1006));
#143=EDGE_LOOP('',(#1007,#1008,#1009,#1010));
#144=EDGE_LOOP('',(#1011,#1012,#1013,#1014));
#145=EDGE_LOOP('',(#1015,#1016,#1017,#1018));
#146=EDGE_LOOP('',(#1019,#1020,#1021,#1022));
#147=EDGE_LOOP('',(#1023,#1024,#1025,#1026,#1027,#1028,#1029,#1030));
#148=EDGE_LOOP('',(#1031,#1032,#1033,#1034));
#149=EDGE_LOOP('',(#1035,#1036,#1037,#1038));
#150=EDGE_LOOP('',(#1039,#1040,#1041,#1042));
#151=EDGE_LOOP('',(#1043,#1044,#1045,#1046,#1047,#1048));
#152=EDGE_LOOP('',(#1049,#1050,#1051,#1052));
#153=EDGE_LOOP('',(#1053,#1054,#1055,#1056));
#154=EDGE_LOOP('',(#1057,#1058,#1059,#1060));
#155=EDGE_LOOP('',(#1061,#1062,#1063,#1064));
#156=EDGE_LOOP('',(#1065,#1066,#1067,#1068));
#157=EDGE_LOOP('',(#1069,#1070,#1071,#1072));
#158=EDGE_LOOP('',(#1073,#1074,#1075,#1076,#1077,#1078,#1079,#1080,#1081,
#1082,#1083,#1084,#1085,#1086,#1087,#1088,#1089,#1090,#1091,#1092,#1093,
#1094));
#159=EDGE_LOOP('',(#1095));
#160=EDGE_LOOP('',(#1096));
#161=CIRCLE('',#1225,3.99999999999999);
#162=CIRCLE('',#1226,4.00000000000003);
#163=CIRCLE('',#1227,1.2);
#164=CIRCLE('',#1228,1.2);
#165=CIRCLE('',#1230,3.99999999999999);
#166=CIRCLE('',#1233,4.00000000000003);
#167=CIRCLE('',#1237,1.2);
#168=CIRCLE('',#1242,1.2);
#169=CIRCLE('',#1268,4.00000000000014);
#170=CIRCLE('',#1269,4.);
#171=CIRCLE('',#1270,1.19999999999999);
#172=CIRCLE('',#1271,1.2);
#173=CIRCLE('',#1287,1.19999999999999);
#174=CIRCLE('',#1291,1.2);
#175=CIRCLE('',#1294,4.00000000000014);
#176=CIRCLE('',#1298,4.);
#177=LINE('',#1610,#329);
#178=LINE('',#1612,#330);
#179=LINE('',#1614,#331);
#180=LINE('',#1616,#332);
#181=LINE('',#1618,#333);
#182=LINE('',#1620,#334);
#183=LINE('',#1624,#335);
#184=LINE('',#1628,#336);
#185=LINE('',#1630,#337);
#186=LINE('',#1632,#338);
#187=LINE('',#1634,#339);
#188=LINE('',#1635,#340);
#189=LINE('',#1644,#341);
#190=LINE('',#1645,#342);
#191=LINE('',#1648,#343);
#192=LINE('',#1649,#344);
#193=LINE('',#1653,#345);
#194=LINE('',#1656,#346);
#195=LINE('',#1658,#347);
#196=LINE('',#1659,#348);
#197=LINE('',#1662,#349);
#198=LINE('',#1664,#350);
#199=LINE('',#1666,#351);
#200=LINE('',#1667,#352);
#201=LINE('',#1670,#353);
#202=LINE('',#1674,#354);
#203=LINE('',#1676,#355);
#204=LINE('',#1678,#356);
#205=LINE('',#1680,#357);
#206=LINE('',#1681,#358);
#207=LINE('',#1684,#359);
#208=LINE('',#1685,#360);
#209=LINE('',#1688,#361);
#210=LINE('',#1690,#362);
#211=LINE('',#1692,#363);
#212=LINE('',#1693,#364);
#213=LINE('',#1696,#365);
#214=LINE('',#1700,#366);
#215=LINE('',#1702,#367);
#216=LINE('',#1704,#368);
#217=LINE('',#1706,#369);
#218=LINE('',#1708,#370);
#219=LINE('',#1709,#371);
#220=LINE('',#1712,#372);
#221=LINE('',#1713,#373);
#222=LINE('',#1716,#374);
#223=LINE('',#1717,#375);
#224=LINE('',#1720,#376);
#225=LINE('',#1721,#377);
#226=LINE('',#1724,#378);
#227=LINE('',#1725,#379);
#228=LINE('',#1728,#380);
#229=LINE('',#1729,#381);
#230=LINE('',#1732,#382);
#231=LINE('',#1734,#383);
#232=LINE('',#1736,#384);
#233=LINE('',#1738,#385);
#234=LINE('',#1739,#386);
#235=LINE('',#1742,#387);
#236=LINE('',#1743,#388);
#237=LINE('',#1746,#389);
#238=LINE('',#1747,#390);
#239=LINE('',#1750,#391);
#240=LINE('',#1751,#392);
#241=LINE('',#1754,#393);
#242=LINE('',#1755,#394);
#243=LINE('',#1757,#395);
#244=LINE('',#1760,#396);
#245=LINE('',#1761,#397);
#246=LINE('',#1764,#398);
#247=LINE('',#1765,#399);
#248=LINE('',#1767,#400);
#249=LINE('',#1768,#401);
#250=LINE('',#1769,#402);
#251=LINE('',#1771,#403);
#252=LINE('',#1773,#404);
#253=LINE('',#1780,#405);
#254=LINE('',#1782,#406);
#255=LINE('',#1784,#407);
#256=LINE('',#1785,#408);
#257=LINE('',#1789,#409);
#258=LINE('',#1791,#410);
#259=LINE('',#1793,#411);
#260=LINE('',#1794,#412);
#261=LINE('',#1798,#413);
#262=LINE('',#1800,#414);
#263=LINE('',#1802,#415);
#264=LINE('',#1803,#416);
#265=LINE('',#1806,#417);
#266=LINE('',#1808,#418);
#267=LINE('',#1810,#419);
#268=LINE('',#1812,#420);
#269=LINE('',#1813,#421);
#270=LINE('',#1816,#422);
#271=LINE('',#1818,#423);
#272=LINE('',#1820,#424);
#273=LINE('',#1822,#425);
#274=LINE('',#1823,#426);
#275=LINE('',#1826,#427);
#276=LINE('',#1827,#428);
#277=LINE('',#1829,#429);
#278=LINE('',#1833,#430);
#279=LINE('',#1836,#431);
#280=LINE('',#1838,#432);
#281=LINE('',#1839,#433);
#282=LINE('',#1846,#434);
#283=LINE('',#1848,#435);
#284=LINE('',#1850,#436);
#285=LINE('',#1851,#437);
#286=LINE('',#1854,#438);
#287=LINE('',#1856,#439);
#288=LINE('',#1857,#440);
#289=LINE('',#1860,#441);
#290=LINE('',#1862,#442);
#291=LINE('',#1863,#443);
#292=LINE('',#1866,#444);
#293=LINE('',#1868,#445);
#294=LINE('',#1869,#446);
#295=LINE('',#1872,#447);
#296=LINE('',#1874,#448);
#297=LINE('',#1875,#449);
#298=LINE('',#1877,#450);
#299=LINE('',#1878,#451);
#300=LINE('',#1880,#452);
#301=LINE('',#1883,#453);
#302=LINE('',#1885,#454);
#303=LINE('',#1886,#455);
#304=LINE('',#1889,#456);
#305=LINE('',#1891,#457);
#306=LINE('',#1892,#458);
#307=LINE('',#1895,#459);
#308=LINE('',#1897,#460);
#309=LINE('',#1898,#461);
#310=LINE('',#1901,#462);
#311=LINE('',#1903,#463);
#312=LINE('',#1904,#464);
#313=LINE('',#1907,#465);
#314=LINE('',#1909,#466);
#315=LINE('',#1910,#467);
#316=LINE('',#1913,#468);
#317=LINE('',#1914,#469);
#318=LINE('',#1918,#470);
#319=LINE('',#1921,#471);
#320=LINE('',#1923,#472);
#321=LINE('',#1926,#473);
#322=LINE('',#1931,#474);
#323=LINE('',#1932,#475);
#324=LINE('',#1933,#476);
#325=LINE('',#1937,#477);
#326=LINE('',#1939,#478);
#327=LINE('',#1942,#479);
#328=LINE('',#1943,#480);
#329=VECTOR('',#1304,10.);
#330=VECTOR('',#1305,10.);
#331=VECTOR('',#1306,10.);
#332=VECTOR('',#1307,10.);
#333=VECTOR('',#1308,10.);
#334=VECTOR('',#1309,10.);
#335=VECTOR('',#1312,10.);
#336=VECTOR('',#1315,10.);
#337=VECTOR('',#1316,10.);
#338=VECTOR('',#1317,10.);
#339=VECTOR('',#1318,10.);
#340=VECTOR('',#1319,10.);
#341=VECTOR('',#1328,10.);
#342=VECTOR('',#1329,10.);
#343=VECTOR('',#1332,10.);
#344=VECTOR('',#1333,10.);
#345=VECTOR('',#1338,10.);
#346=VECTOR('',#1341,10.);
#347=VECTOR('',#1342,10.);
#348=VECTOR('',#1343,10.);
#349=VECTOR('',#1346,10.);
#350=VECTOR('',#1347,10.);
#351=VECTOR('',#1348,10.);
#352=VECTOR('',#1349,10.);
#353=VECTOR('',#1352,1.2);
#354=VECTOR('',#1357,10.);
#355=VECTOR('',#1358,10.);
#356=VECTOR('',#1359,10.);
#357=VECTOR('',#1360,10.);
#358=VECTOR('',#1361,10.);
#359=VECTOR('',#1364,10.);
#360=VECTOR('',#1365,10.);
#361=VECTOR('',#1368,10.);
#362=VECTOR('',#1369,10.);
#363=VECTOR('',#1370,10.);
#364=VECTOR('',#1371,10.);
#365=VECTOR('',#1374,1.2);
#366=VECTOR('',#1379,10.);
#367=VECTOR('',#1380,10.);
#368=VECTOR('',#1381,10.);
#369=VECTOR('',#1382,10.);
#370=VECTOR('',#1383,10.);
#371=VECTOR('',#1384,10.);
#372=VECTOR('',#1387,10.);
#373=VECTOR('',#1388,10.);
#374=VECTOR('',#1391,10.);
#375=VECTOR('',#1392,10.);
#376=VECTOR('',#1395,10.);
#377=VECTOR('',#1396,10.);
#378=VECTOR('',#1399,10.);
#379=VECTOR('',#1400,10.);
#380=VECTOR('',#1403,10.);
#381=VECTOR('',#1404,10.);
#382=VECTOR('',#1407,10.);
#383=VECTOR('',#1408,10.);
#384=VECTOR('',#1409,10.);
#385=VECTOR('',#1410,10.);
#386=VECTOR('',#1411,10.);
#387=VECTOR('',#1414,10.);
#388=VECTOR('',#1415,10.);
#389=VECTOR('',#1418,10.);
#390=VECTOR('',#1419,10.);
#391=VECTOR('',#1422,10.);
#392=VECTOR('',#1423,10.);
#393=VECTOR('',#1426,10.);
#394=VECTOR('',#1427,10.);
#395=VECTOR('',#1430,10.);
#396=VECTOR('',#1433,10.);
#397=VECTOR('',#1434,10.);
#398=VECTOR('',#1437,10.);
#399=VECTOR('',#1438,10.);
#400=VECTOR('',#1439,10.);
#401=VECTOR('',#1440,10.);
#402=VECTOR('',#1441,10.);
#403=VECTOR('',#1444,10.);
#404=VECTOR('',#1447,10.);
#405=VECTOR('',#1456,10.);
#406=VECTOR('',#1457,10.);
#407=VECTOR('',#1458,10.);
#408=VECTOR('',#1459,10.);
#409=VECTOR('',#1462,10.);
#410=VECTOR('',#1463,10.);
#411=VECTOR('',#1464,10.);
#412=VECTOR('',#1465,10.);
#413=VECTOR('',#1468,10.);
#414=VECTOR('',#1469,10.);
#415=VECTOR('',#1470,10.);
#416=VECTOR('',#1471,10.);
#417=VECTOR('',#1474,10.);
#418=VECTOR('',#1475,10.);
#419=VECTOR('',#1476,10.);
#420=VECTOR('',#1477,10.);
#421=VECTOR('',#1478,10.);
#422=VECTOR('',#1481,10.);
#423=VECTOR('',#1482,10.);
#424=VECTOR('',#1483,10.);
#425=VECTOR('',#1484,10.);
#426=VECTOR('',#1485,10.);
#427=VECTOR('',#1488,10.);
#428=VECTOR('',#1489,10.);
#429=VECTOR('',#1490,10.);
#430=VECTOR('',#1493,10.);
#431=VECTOR('',#1496,10.);
#432=VECTOR('',#1497,10.);
#433=VECTOR('',#1498,10.);
#434=VECTOR('',#1505,10.);
#435=VECTOR('',#1506,10.);
#436=VECTOR('',#1507,10.);
#437=VECTOR('',#1508,10.);
#438=VECTOR('',#1511,10.);
#439=VECTOR('',#1512,10.);
#440=VECTOR('',#1513,10.);
#441=VECTOR('',#1516,10.);
#442=VECTOR('',#1517,10.);
#443=VECTOR('',#1518,10.);
#444=VECTOR('',#1521,10.);
#445=VECTOR('',#1522,10.);
#446=VECTOR('',#1523,10.);
#447=VECTOR('',#1526,10.);
#448=VECTOR('',#1527,10.);
#449=VECTOR('',#1528,10.);
#450=VECTOR('',#1531,10.);
#451=VECTOR('',#1532,10.);
#452=VECTOR('',#1535,10.);
#453=VECTOR('',#1538,10.);
#454=VECTOR('',#1539,10.);
#455=VECTOR('',#1540,10.);
#456=VECTOR('',#1543,10.);
#457=VECTOR('',#1544,10.);
#458=VECTOR('',#1545,10.);
#459=VECTOR('',#1548,10.);
#460=VECTOR('',#1549,10.);
#461=VECTOR('',#1550,10.);
#462=VECTOR('',#1553,10.);
#463=VECTOR('',#1554,10.);
#464=VECTOR('',#1555,10.);
#465=VECTOR('',#1558,10.);
#466=VECTOR('',#1559,10.);
#467=VECTOR('',#1560,10.);
#468=VECTOR('',#1563,10.);
#469=VECTOR('',#1564,10.);
#470=VECTOR('',#1569,1.19999999999999);
#471=VECTOR('',#1574,10.);
#472=VECTOR('',#1577,10.);
#473=VECTOR('',#1580,1.2);
#474=VECTOR('',#1585,10.);
#475=VECTOR('',#1586,10.);
#476=VECTOR('',#1587,10.);
#477=VECTOR('',#1592,10.);
#478=VECTOR('',#1595,10.);
#479=VECTOR('',#1598,10.);
#480=VECTOR('',#1599,10.);
#481=VERTEX_POINT('',#1608);
#482=VERTEX_POINT('',#1609);
#483=VERTEX_POINT('',#1611);
#484=VERTEX_POINT('',#1613);
#485=VERTEX_POINT('',#1615);
#486=VERTEX_POINT('',#1617);
#487=VERTEX_POINT('',#1619);
#488=VERTEX_POINT('',#1621);
#489=VERTEX_POINT('',#1623);
#490=VERTEX_POINT('',#1625);
#491=VERTEX_POINT('',#1627);
#492=VERTEX_POINT('',#1629);
#493=VERTEX_POINT('',#1631);
#494=VERTEX_POINT('',#1633);
#495=VERTEX_POINT('',#1636);
#496=VERTEX_POINT('',#1638);
#497=VERTEX_POINT('',#1641);
#498=VERTEX_POINT('',#1642);
#499=VERTEX_POINT('',#1647);
#500=VERTEX_POINT('',#1651);
#501=VERTEX_POINT('',#1655);
#502=VERTEX_POINT('',#1657);
#503=VERTEX_POINT('',#1661);
#504=VERTEX_POINT('',#1663);
#505=VERTEX_POINT('',#1665);
#506=VERTEX_POINT('',#1669);
#507=VERTEX_POINT('',#1673);
#508=VERTEX_POINT('',#1675);
#509=VERTEX_POINT('',#1677);
#510=VERTEX_POINT('',#1679);
#511=VERTEX_POINT('',#1683);
#512=VERTEX_POINT('',#1687);
#513=VERTEX_POINT('',#1689);
#514=VERTEX_POINT('',#1691);
#515=VERTEX_POINT('',#1695);
#516=VERTEX_POINT('',#1699);
#517=VERTEX_POINT('',#1701);
#518=VERTEX_POINT('',#1703);
#519=VERTEX_POINT('',#1705);
#520=VERTEX_POINT('',#1707);
#521=VERTEX_POINT('',#1711);
#522=VERTEX_POINT('',#1715);
#523=VERTEX_POINT('',#1719);
#524=VERTEX_POINT('',#1723);
#525=VERTEX_POINT('',#1727);
#526=VERTEX_POINT('',#1731);
#527=VERTEX_POINT('',#1733);
#528=VERTEX_POINT('',#1735);
#529=VERTEX_POINT('',#1737);
#530=VERTEX_POINT('',#1741);
#531=VERTEX_POINT('',#1745);
#532=VERTEX_POINT('',#1749);
#533=VERTEX_POINT('',#1753);
#534=VERTEX_POINT('',#1759);
#535=VERTEX_POINT('',#1763);
#536=VERTEX_POINT('',#1766);
#537=VERTEX_POINT('',#1778);
#538=VERTEX_POINT('',#1779);
#539=VERTEX_POINT('',#1781);
#540=VERTEX_POINT('',#1783);
#541=VERTEX_POINT('',#1787);
#542=VERTEX_POINT('',#1788);
#543=VERTEX_POINT('',#1790);
#544=VERTEX_POINT('',#1792);
#545=VERTEX_POINT('',#1796);
#546=VERTEX_POINT('',#1797);
#547=VERTEX_POINT('',#1799);
#548=VERTEX_POINT('',#1801);
#549=VERTEX_POINT('',#1805);
#550=VERTEX_POINT('',#1807);
#551=VERTEX_POINT('',#1809);
#552=VERTEX_POINT('',#1811);
#553=VERTEX_POINT('',#1815);
#554=VERTEX_POINT('',#1817);
#555=VERTEX_POINT('',#1819);
#556=VERTEX_POINT('',#1821);
#557=VERTEX_POINT('',#1825);
#558=VERTEX_POINT('',#1828);
#559=VERTEX_POINT('',#1830);
#560=VERTEX_POINT('',#1832);
#561=VERTEX_POINT('',#1834);
#562=VERTEX_POINT('',#1837);
#563=VERTEX_POINT('',#1840);
#564=VERTEX_POINT('',#1842);
#565=VERTEX_POINT('',#1845);
#566=VERTEX_POINT('',#1847);
#567=VERTEX_POINT('',#1849);
#568=VERTEX_POINT('',#1853);
#569=VERTEX_POINT('',#1855);
#570=VERTEX_POINT('',#1859);
#571=VERTEX_POINT('',#1861);
#572=VERTEX_POINT('',#1865);
#573=VERTEX_POINT('',#1867);
#574=VERTEX_POINT('',#1871);
#575=VERTEX_POINT('',#1873);
#576=VERTEX_POINT('',#1882);
#577=VERTEX_POINT('',#1884);
#578=VERTEX_POINT('',#1888);
#579=VERTEX_POINT('',#1890);
#580=VERTEX_POINT('',#1894);
#581=VERTEX_POINT('',#1896);
#582=VERTEX_POINT('',#1900);
#583=VERTEX_POINT('',#1902);
#584=VERTEX_POINT('',#1906);
#585=VERTEX_POINT('',#1908);
#586=VERTEX_POINT('',#1912);
#587=VERTEX_POINT('',#1917);
#588=VERTEX_POINT('',#1925);
#589=VERTEX_POINT('',#1929);
#590=VERTEX_POINT('',#1930);
#591=VERTEX_POINT('',#1935);
#592=VERTEX_POINT('',#1941);
#593=EDGE_CURVE('',#481,#482,#177,.T.);
#594=EDGE_CURVE('',#481,#483,#178,.T.);
#595=EDGE_CURVE('',#483,#484,#179,.T.);
#596=EDGE_CURVE('',#484,#485,#180,.T.);
#597=EDGE_CURVE('',#486,#485,#181,.T.);
#598=EDGE_CURVE('',#486,#487,#182,.T.);
#599=EDGE_CURVE('',#487,#488,#161,.T.);
#600=EDGE_CURVE('',#488,#489,#183,.T.);
#601=EDGE_CURVE('',#489,#490,#162,.T.);
#602=EDGE_CURVE('',#490,#491,#184,.T.);
#603=EDGE_CURVE('',#492,#491,#185,.T.);
#604=EDGE_CURVE('',#492,#493,#186,.T.);
#605=EDGE_CURVE('',#493,#494,#187,.T.);
#606=EDGE_CURVE('',#494,#482,#188,.T.);
#607=EDGE_CURVE('',#495,#495,#163,.T.);
#608=EDGE_CURVE('',#496,#496,#164,.T.);
#609=EDGE_CURVE('',#497,#498,#165,.T.);
#610=EDGE_CURVE('',#498,#488,#189,.T.);
#611=EDGE_CURVE('',#497,#487,#190,.T.);
#612=EDGE_CURVE('',#498,#499,#191,.T.);
#613=EDGE_CURVE('',#499,#489,#192,.T.);
#614=EDGE_CURVE('',#499,#500,#166,.T.);
#615=EDGE_CURVE('',#500,#490,#193,.T.);
#616=EDGE_CURVE('',#501,#494,#194,.T.);
#617=EDGE_CURVE('',#493,#502,#195,.T.);
#618=EDGE_CURVE('',#501,#502,#196,.T.);
#619=EDGE_CURVE('',#503,#492,#197,.T.);
#620=EDGE_CURVE('',#503,#504,#198,.T.);
#621=EDGE_CURVE('',#504,#505,#199,.F.);
#622=EDGE_CURVE('',#502,#505,#200,.T.);
#623=EDGE_CURVE('',#495,#506,#201,.T.);
#624=EDGE_CURVE('',#506,#506,#167,.T.);
#625=EDGE_CURVE('',#507,#481,#202,.T.);
#626=EDGE_CURVE('',#507,#508,#203,.T.);
#627=EDGE_CURVE('',#508,#509,#204,.F.);
#628=EDGE_CURVE('',#510,#509,#205,.T.);
#629=EDGE_CURVE('',#510,#483,#206,.T.);
#630=EDGE_CURVE('',#511,#484,#207,.T.);
#631=EDGE_CURVE('',#511,#510,#208,.T.);
#632=EDGE_CURVE('',#485,#512,#209,.T.);
#633=EDGE_CURVE('',#513,#511,#210,.T.);
#634=EDGE_CURVE('',#514,#513,#211,.T.);
#635=EDGE_CURVE('',#514,#512,#212,.T.);
#636=EDGE_CURVE('',#496,#515,#213,.T.);
#637=EDGE_CURVE('',#515,#515,#168,.T.);
#638=EDGE_CURVE('',#516,#501,#214,.T.);
#639=EDGE_CURVE('',#505,#517,#215,.F.);
#640=EDGE_CURVE('',#517,#518,#216,.F.);
#641=EDGE_CURVE('',#518,#519,#217,.F.);
#642=EDGE_CURVE('',#519,#520,#218,.F.);
#643=EDGE_CURVE('',#520,#516,#219,.F.);
#644=EDGE_CURVE('',#521,#504,#220,.F.);
#645=EDGE_CURVE('',#521,#517,#221,.T.);
#646=EDGE_CURVE('',#522,#521,#222,.F.);
#647=EDGE_CURVE('',#522,#518,#223,.F.);
#648=EDGE_CURVE('',#523,#522,#224,.F.);
#649=EDGE_CURVE('',#523,#519,#225,.T.);
#650=EDGE_CURVE('',#524,#523,#226,.F.);
#651=EDGE_CURVE('',#524,#520,#227,.F.);
#652=EDGE_CURVE('',#525,#524,#228,.F.);
#653=EDGE_CURVE('',#525,#516,#229,.T.);
#654=EDGE_CURVE('',#509,#526,#230,.F.);
#655=EDGE_CURVE('',#526,#527,#231,.F.);
#656=EDGE_CURVE('',#527,#528,#232,.F.);
#657=EDGE_CURVE('',#528,#529,#233,.F.);
#658=EDGE_CURVE('',#529,#513,#234,.F.);
#659=EDGE_CURVE('',#530,#508,#235,.F.);
#660=EDGE_CURVE('',#530,#526,#236,.T.);
#661=EDGE_CURVE('',#531,#530,#237,.F.);
#662=EDGE_CURVE('',#531,#527,#238,.F.);
#663=EDGE_CURVE('',#532,#531,#239,.F.);
#664=EDGE_CURVE('',#532,#528,#240,.T.);
#665=EDGE_CURVE('',#533,#532,#241,.F.);
#666=EDGE_CURVE('',#533,#529,#242,.T.);
#667=EDGE_CURVE('',#514,#533,#243,.F.);
#668=EDGE_CURVE('',#534,#486,#244,.T.);
#669=EDGE_CURVE('',#534,#497,#245,.T.);
#670=EDGE_CURVE('',#535,#507,#246,.T.);
#671=EDGE_CURVE('',#525,#535,#247,.T.);
#672=EDGE_CURVE('',#536,#503,#248,.T.);
#673=EDGE_CURVE('',#500,#536,#249,.T.);
#674=EDGE_CURVE('',#512,#534,#250,.T.);
#675=EDGE_CURVE('',#491,#536,#251,.T.);
#676=EDGE_CURVE('',#482,#535,#252,.T.);
#677=EDGE_CURVE('',#537,#538,#253,.T.);
#678=EDGE_CURVE('',#539,#537,#254,.T.);
#679=EDGE_CURVE('',#540,#539,#255,.T.);
#680=EDGE_CURVE('',#538,#540,#256,.T.);
#681=EDGE_CURVE('',#541,#542,#257,.T.);
#682=EDGE_CURVE('',#543,#541,#258,.T.);
#683=EDGE_CURVE('',#544,#543,#259,.T.);
#684=EDGE_CURVE('',#542,#544,#260,.T.);
#685=EDGE_CURVE('',#545,#546,#261,.T.);
#686=EDGE_CURVE('',#547,#545,#262,.T.);
#687=EDGE_CURVE('',#548,#547,#263,.T.);
#688=EDGE_CURVE('',#546,#548,#264,.T.);
#689=EDGE_CURVE('',#549,#539,#265,.T.);
#690=EDGE_CURVE('',#549,#550,#266,.T.);
#691=EDGE_CURVE('',#551,#550,#267,.T.);
#692=EDGE_CURVE('',#552,#551,#268,.T.);
#693=EDGE_CURVE('',#552,#540,#269,.T.);
#694=EDGE_CURVE('',#553,#543,#270,.T.);
#695=EDGE_CURVE('',#554,#553,#271,.T.);
#696=EDGE_CURVE('',#555,#554,#272,.T.);
#697=EDGE_CURVE('',#556,#555,#273,.T.);
#698=EDGE_CURVE('',#556,#544,#274,.T.);
#699=EDGE_CURVE('',#537,#557,#275,.T.);
#700=EDGE_CURVE('',#557,#553,#276,.T.);
#701=EDGE_CURVE('',#541,#558,#277,.T.);
#702=EDGE_CURVE('',#558,#559,#169,.T.);
#703=EDGE_CURVE('',#559,#560,#278,.T.);
#704=EDGE_CURVE('',#560,#561,#170,.T.);
#705=EDGE_CURVE('',#561,#546,#279,.T.);
#706=EDGE_CURVE('',#548,#562,#280,.T.);
#707=EDGE_CURVE('',#562,#549,#281,.T.);
#708=EDGE_CURVE('',#563,#563,#171,.T.);
#709=EDGE_CURVE('',#564,#564,#172,.T.);
#710=EDGE_CURVE('',#547,#565,#282,.T.);
#711=EDGE_CURVE('',#565,#566,#283,.F.);
#712=EDGE_CURVE('',#567,#566,#284,.T.);
#713=EDGE_CURVE('',#567,#562,#285,.T.);
#714=EDGE_CURVE('',#552,#568,#286,.F.);
#715=EDGE_CURVE('',#569,#551,#287,.F.);
#716=EDGE_CURVE('',#568,#569,#288,.F.);
#717=EDGE_CURVE('',#568,#570,#289,.F.);
#718=EDGE_CURVE('',#571,#569,#290,.F.);
#719=EDGE_CURVE('',#570,#571,#291,.T.);
#720=EDGE_CURVE('',#570,#572,#292,.F.);
#721=EDGE_CURVE('',#573,#571,#293,.F.);
#722=EDGE_CURVE('',#572,#573,#294,.T.);
#723=EDGE_CURVE('',#572,#574,#295,.F.);
#724=EDGE_CURVE('',#575,#573,#296,.F.);
#725=EDGE_CURVE('',#574,#575,#297,.F.);
#726=EDGE_CURVE('',#574,#565,#298,.F.);
#727=EDGE_CURVE('',#566,#575,#299,.F.);
#728=EDGE_CURVE('',#550,#567,#300,.T.);
#729=EDGE_CURVE('',#556,#576,#301,.F.);
#730=EDGE_CURVE('',#577,#555,#302,.F.);
#731=EDGE_CURVE('',#576,#577,#303,.T.);
#732=EDGE_CURVE('',#576,#578,#304,.F.);
#733=EDGE_CURVE('',#579,#577,#305,.F.);
#734=EDGE_CURVE('',#578,#579,#306,.T.);
#735=EDGE_CURVE('',#578,#580,#307,.F.);
#736=EDGE_CURVE('',#581,#579,#308,.F.);
#737=EDGE_CURVE('',#580,#581,#309,.F.);
#738=EDGE_CURVE('',#580,#582,#310,.F.);
#739=EDGE_CURVE('',#583,#581,#311,.F.);
#740=EDGE_CURVE('',#582,#583,#312,.T.);
#741=EDGE_CURVE('',#582,#584,#313,.F.);
#742=EDGE_CURVE('',#585,#583,#314,.F.);
#743=EDGE_CURVE('',#584,#585,#315,.F.);
#744=EDGE_CURVE('',#554,#586,#316,.T.);
#745=EDGE_CURVE('',#586,#585,#317,.T.);
#746=EDGE_CURVE('',#563,#587,#318,.T.);
#747=EDGE_CURVE('',#587,#587,#173,.T.);
#748=EDGE_CURVE('',#586,#557,#319,.T.);
#749=EDGE_CURVE('',#538,#584,#320,.T.);
#750=EDGE_CURVE('',#564,#588,#321,.T.);
#751=EDGE_CURVE('',#588,#588,#174,.T.);
#752=EDGE_CURVE('',#589,#590,#322,.T.);
#753=EDGE_CURVE('',#590,#560,#323,.T.);
#754=EDGE_CURVE('',#589,#559,#324,.T.);
#755=EDGE_CURVE('',#591,#589,#175,.T.);
#756=EDGE_CURVE('',#591,#558,#325,.T.);
#757=EDGE_CURVE('',#542,#591,#326,.T.);
#758=EDGE_CURVE('',#592,#561,#327,.T.);
#759=EDGE_CURVE('',#592,#545,#328,.T.);
#760=EDGE_CURVE('',#590,#592,#176,.T.);
#761=ORIENTED_EDGE('',*,*,#593,.F.);
#762=ORIENTED_EDGE('',*,*,#594,.T.);
#763=ORIENTED_EDGE('',*,*,#595,.T.);
#764=ORIENTED_EDGE('',*,*,#596,.T.);
#765=ORIENTED_EDGE('',*,*,#597,.F.);
#766=ORIENTED_EDGE('',*,*,#598,.T.);
#767=ORIENTED_EDGE('',*,*,#599,.T.);
#768=ORIENTED_EDGE('',*,*,#600,.T.);
#769=ORIENTED_EDGE('',*,*,#601,.T.);
#770=ORIENTED_EDGE('',*,*,#602,.T.);
#771=ORIENTED_EDGE('',*,*,#603,.F.);
#772=ORIENTED_EDGE('',*,*,#604,.T.);
#773=ORIENTED_EDGE('',*,*,#605,.T.);
#774=ORIENTED_EDGE('',*,*,#606,.T.);
#775=ORIENTED_EDGE('',*,*,#607,.T.);
#776=ORIENTED_EDGE('',*,*,#608,.T.);
#777=ORIENTED_EDGE('',*,*,#609,.T.);
#778=ORIENTED_EDGE('',*,*,#610,.T.);
#779=ORIENTED_EDGE('',*,*,#599,.F.);
#780=ORIENTED_EDGE('',*,*,#611,.F.);
#781=ORIENTED_EDGE('',*,*,#612,.T.);
#782=ORIENTED_EDGE('',*,*,#613,.T.);
#783=ORIENTED_EDGE('',*,*,#600,.F.);
#784=ORIENTED_EDGE('',*,*,#610,.F.);
#785=ORIENTED_EDGE('',*,*,#614,.T.);
#786=ORIENTED_EDGE('',*,*,#615,.T.);
#787=ORIENTED_EDGE('',*,*,#601,.F.);
#788=ORIENTED_EDGE('',*,*,#613,.F.);
#789=ORIENTED_EDGE('',*,*,#616,.T.);
#790=ORIENTED_EDGE('',*,*,#605,.F.);
#791=ORIENTED_EDGE('',*,*,#617,.T.);
#792=ORIENTED_EDGE('',*,*,#618,.F.);
#793=ORIENTED_EDGE('',*,*,#619,.F.);
#794=ORIENTED_EDGE('',*,*,#620,.T.);
#795=ORIENTED_EDGE('',*,*,#621,.T.);
#796=ORIENTED_EDGE('',*,*,#622,.F.);
#797=ORIENTED_EDGE('',*,*,#617,.F.);
#798=ORIENTED_EDGE('',*,*,#604,.F.);
#799=ORIENTED_EDGE('',*,*,#607,.F.);
#800=ORIENTED_EDGE('',*,*,#623,.T.);
#801=ORIENTED_EDGE('',*,*,#624,.T.);
#802=ORIENTED_EDGE('',*,*,#623,.F.);
#803=ORIENTED_EDGE('',*,*,#625,.F.);
#804=ORIENTED_EDGE('',*,*,#626,.T.);
#805=ORIENTED_EDGE('',*,*,#627,.T.);
#806=ORIENTED_EDGE('',*,*,#628,.F.);
#807=ORIENTED_EDGE('',*,*,#629,.T.);
#808=ORIENTED_EDGE('',*,*,#594,.F.);
#809=ORIENTED_EDGE('',*,*,#630,.T.);
#810=ORIENTED_EDGE('',*,*,#595,.F.);
#811=ORIENTED_EDGE('',*,*,#629,.F.);
#812=ORIENTED_EDGE('',*,*,#631,.F.);
#813=ORIENTED_EDGE('',*,*,#632,.F.);
#814=ORIENTED_EDGE('',*,*,#596,.F.);
#815=ORIENTED_EDGE('',*,*,#630,.F.);
#816=ORIENTED_EDGE('',*,*,#633,.F.);
#817=ORIENTED_EDGE('',*,*,#634,.F.);
#818=ORIENTED_EDGE('',*,*,#635,.T.);
#819=ORIENTED_EDGE('',*,*,#608,.F.);
#820=ORIENTED_EDGE('',*,*,#636,.T.);
#821=ORIENTED_EDGE('',*,*,#637,.T.);
#822=ORIENTED_EDGE('',*,*,#636,.F.);
#823=ORIENTED_EDGE('',*,*,#638,.T.);
#824=ORIENTED_EDGE('',*,*,#618,.T.);
#825=ORIENTED_EDGE('',*,*,#622,.T.);
#826=ORIENTED_EDGE('',*,*,#639,.T.);
#827=ORIENTED_EDGE('',*,*,#640,.T.);
#828=ORIENTED_EDGE('',*,*,#641,.T.);
#829=ORIENTED_EDGE('',*,*,#642,.T.);
#830=ORIENTED_EDGE('',*,*,#643,.T.);
#831=ORIENTED_EDGE('',*,*,#644,.F.);
#832=ORIENTED_EDGE('',*,*,#645,.T.);
#833=ORIENTED_EDGE('',*,*,#639,.F.);
#834=ORIENTED_EDGE('',*,*,#621,.F.);
#835=ORIENTED_EDGE('',*,*,#646,.F.);
#836=ORIENTED_EDGE('',*,*,#647,.T.);
#837=ORIENTED_EDGE('',*,*,#640,.F.);
#838=ORIENTED_EDGE('',*,*,#645,.F.);
#839=ORIENTED_EDGE('',*,*,#648,.F.);
#840=ORIENTED_EDGE('',*,*,#649,.T.);
#841=ORIENTED_EDGE('',*,*,#641,.F.);
#842=ORIENTED_EDGE('',*,*,#647,.F.);
#843=ORIENTED_EDGE('',*,*,#650,.F.);
#844=ORIENTED_EDGE('',*,*,#651,.T.);
#845=ORIENTED_EDGE('',*,*,#642,.F.);
#846=ORIENTED_EDGE('',*,*,#649,.F.);
#847=ORIENTED_EDGE('',*,*,#652,.F.);
#848=ORIENTED_EDGE('',*,*,#653,.T.);
#849=ORIENTED_EDGE('',*,*,#643,.F.);
#850=ORIENTED_EDGE('',*,*,#651,.F.);
#851=ORIENTED_EDGE('',*,*,#633,.T.);
#852=ORIENTED_EDGE('',*,*,#631,.T.);
#853=ORIENTED_EDGE('',*,*,#628,.T.);
#854=ORIENTED_EDGE('',*,*,#654,.T.);
#855=ORIENTED_EDGE('',*,*,#655,.T.);
#856=ORIENTED_EDGE('',*,*,#656,.T.);
#857=ORIENTED_EDGE('',*,*,#657,.T.);
#858=ORIENTED_EDGE('',*,*,#658,.T.);
#859=ORIENTED_EDGE('',*,*,#659,.F.);
#860=ORIENTED_EDGE('',*,*,#660,.T.);
#861=ORIENTED_EDGE('',*,*,#654,.F.);
#862=ORIENTED_EDGE('',*,*,#627,.F.);
#863=ORIENTED_EDGE('',*,*,#661,.F.);
#864=ORIENTED_EDGE('',*,*,#662,.T.);
#865=ORIENTED_EDGE('',*,*,#655,.F.);
#866=ORIENTED_EDGE('',*,*,#660,.F.);
#867=ORIENTED_EDGE('',*,*,#663,.F.);
#868=ORIENTED_EDGE('',*,*,#664,.T.);
#869=ORIENTED_EDGE('',*,*,#656,.F.);
#870=ORIENTED_EDGE('',*,*,#662,.F.);
#871=ORIENTED_EDGE('',*,*,#665,.F.);
#872=ORIENTED_EDGE('',*,*,#666,.T.);
#873=ORIENTED_EDGE('',*,*,#657,.F.);
#874=ORIENTED_EDGE('',*,*,#664,.F.);
#875=ORIENTED_EDGE('',*,*,#667,.F.);
#876=ORIENTED_EDGE('',*,*,#634,.T.);
#877=ORIENTED_EDGE('',*,*,#658,.F.);
#878=ORIENTED_EDGE('',*,*,#666,.F.);
#879=ORIENTED_EDGE('',*,*,#668,.F.);
#880=ORIENTED_EDGE('',*,*,#669,.T.);
#881=ORIENTED_EDGE('',*,*,#611,.T.);
#882=ORIENTED_EDGE('',*,*,#598,.F.);
#883=ORIENTED_EDGE('',*,*,#670,.F.);
#884=ORIENTED_EDGE('',*,*,#671,.F.);
#885=ORIENTED_EDGE('',*,*,#652,.T.);
#886=ORIENTED_EDGE('',*,*,#650,.T.);
#887=ORIENTED_EDGE('',*,*,#648,.T.);
#888=ORIENTED_EDGE('',*,*,#646,.T.);
#889=ORIENTED_EDGE('',*,*,#644,.T.);
#890=ORIENTED_EDGE('',*,*,#620,.F.);
#891=ORIENTED_EDGE('',*,*,#672,.F.);
#892=ORIENTED_EDGE('',*,*,#673,.F.);
#893=ORIENTED_EDGE('',*,*,#614,.F.);
#894=ORIENTED_EDGE('',*,*,#612,.F.);
#895=ORIENTED_EDGE('',*,*,#609,.F.);
#896=ORIENTED_EDGE('',*,*,#669,.F.);
#897=ORIENTED_EDGE('',*,*,#674,.F.);
#898=ORIENTED_EDGE('',*,*,#635,.F.);
#899=ORIENTED_EDGE('',*,*,#667,.T.);
#900=ORIENTED_EDGE('',*,*,#665,.T.);
#901=ORIENTED_EDGE('',*,*,#663,.T.);
#902=ORIENTED_EDGE('',*,*,#661,.T.);
#903=ORIENTED_EDGE('',*,*,#659,.T.);
#904=ORIENTED_EDGE('',*,*,#626,.F.);
#905=ORIENTED_EDGE('',*,*,#637,.F.);
#906=ORIENTED_EDGE('',*,*,#624,.F.);
#907=ORIENTED_EDGE('',*,*,#675,.F.);
#908=ORIENTED_EDGE('',*,*,#602,.F.);
#909=ORIENTED_EDGE('',*,*,#615,.F.);
#910=ORIENTED_EDGE('',*,*,#673,.T.);
#911=ORIENTED_EDGE('',*,*,#676,.F.);
#912=ORIENTED_EDGE('',*,*,#606,.F.);
#913=ORIENTED_EDGE('',*,*,#616,.F.);
#914=ORIENTED_EDGE('',*,*,#638,.F.);
#915=ORIENTED_EDGE('',*,*,#653,.F.);
#916=ORIENTED_EDGE('',*,*,#671,.T.);
#917=ORIENTED_EDGE('',*,*,#676,.T.);
#918=ORIENTED_EDGE('',*,*,#670,.T.);
#919=ORIENTED_EDGE('',*,*,#625,.T.);
#920=ORIENTED_EDGE('',*,*,#593,.T.);
#921=ORIENTED_EDGE('',*,*,#675,.T.);
#922=ORIENTED_EDGE('',*,*,#672,.T.);
#923=ORIENTED_EDGE('',*,*,#619,.T.);
#924=ORIENTED_EDGE('',*,*,#603,.T.);
#925=ORIENTED_EDGE('',*,*,#668,.T.);
#926=ORIENTED_EDGE('',*,*,#597,.T.);
#927=ORIENTED_EDGE('',*,*,#632,.T.);
#928=ORIENTED_EDGE('',*,*,#674,.T.);
#929=ORIENTED_EDGE('',*,*,#677,.F.);
#930=ORIENTED_EDGE('',*,*,#678,.F.);
#931=ORIENTED_EDGE('',*,*,#679,.F.);
#932=ORIENTED_EDGE('',*,*,#680,.F.);
#933=ORIENTED_EDGE('',*,*,#681,.F.);
#934=ORIENTED_EDGE('',*,*,#682,.F.);
#935=ORIENTED_EDGE('',*,*,#683,.F.);
#936=ORIENTED_EDGE('',*,*,#684,.F.);
#937=ORIENTED_EDGE('',*,*,#685,.F.);
#938=ORIENTED_EDGE('',*,*,#686,.F.);
#939=ORIENTED_EDGE('',*,*,#687,.F.);
#940=ORIENTED_EDGE('',*,*,#688,.F.);
#941=ORIENTED_EDGE('',*,*,#679,.T.);
#942=ORIENTED_EDGE('',*,*,#689,.F.);
#943=ORIENTED_EDGE('',*,*,#690,.T.);
#944=ORIENTED_EDGE('',*,*,#691,.F.);
#945=ORIENTED_EDGE('',*,*,#692,.F.);
#946=ORIENTED_EDGE('',*,*,#693,.T.);
#947=ORIENTED_EDGE('',*,*,#683,.T.);
#948=ORIENTED_EDGE('',*,*,#694,.F.);
#949=ORIENTED_EDGE('',*,*,#695,.F.);
#950=ORIENTED_EDGE('',*,*,#696,.F.);
#951=ORIENTED_EDGE('',*,*,#697,.F.);
#952=ORIENTED_EDGE('',*,*,#698,.T.);
#953=ORIENTED_EDGE('',*,*,#678,.T.);
#954=ORIENTED_EDGE('',*,*,#699,.T.);
#955=ORIENTED_EDGE('',*,*,#700,.T.);
#956=ORIENTED_EDGE('',*,*,#694,.T.);
#957=ORIENTED_EDGE('',*,*,#682,.T.);
#958=ORIENTED_EDGE('',*,*,#701,.T.);
#959=ORIENTED_EDGE('',*,*,#702,.T.);
#960=ORIENTED_EDGE('',*,*,#703,.T.);
#961=ORIENTED_EDGE('',*,*,#704,.T.);
#962=ORIENTED_EDGE('',*,*,#705,.T.);
#963=ORIENTED_EDGE('',*,*,#688,.T.);
#964=ORIENTED_EDGE('',*,*,#706,.T.);
#965=ORIENTED_EDGE('',*,*,#707,.T.);
#966=ORIENTED_EDGE('',*,*,#689,.T.);
#967=ORIENTED_EDGE('',*,*,#708,.T.);
#968=ORIENTED_EDGE('',*,*,#709,.T.);
#969=ORIENTED_EDGE('',*,*,#687,.T.);
#970=ORIENTED_EDGE('',*,*,#710,.T.);
#971=ORIENTED_EDGE('',*,*,#711,.T.);
#972=ORIENTED_EDGE('',*,*,#712,.F.);
#973=ORIENTED_EDGE('',*,*,#713,.T.);
#974=ORIENTED_EDGE('',*,*,#706,.F.);
#975=ORIENTED_EDGE('',*,*,#714,.F.);
#976=ORIENTED_EDGE('',*,*,#692,.T.);
#977=ORIENTED_EDGE('',*,*,#715,.F.);
#978=ORIENTED_EDGE('',*,*,#716,.F.);
#979=ORIENTED_EDGE('',*,*,#717,.F.);
#980=ORIENTED_EDGE('',*,*,#716,.T.);
#981=ORIENTED_EDGE('',*,*,#718,.F.);
#982=ORIENTED_EDGE('',*,*,#719,.F.);
#983=ORIENTED_EDGE('',*,*,#720,.F.);
#984=ORIENTED_EDGE('',*,*,#719,.T.);
#985=ORIENTED_EDGE('',*,*,#721,.F.);
#986=ORIENTED_EDGE('',*,*,#722,.F.);
#987=ORIENTED_EDGE('',*,*,#723,.F.);
#988=ORIENTED_EDGE('',*,*,#722,.T.);
#989=ORIENTED_EDGE('',*,*,#724,.F.);
#990=ORIENTED_EDGE('',*,*,#725,.F.);
#991=ORIENTED_EDGE('',*,*,#726,.F.);
#992=ORIENTED_EDGE('',*,*,#725,.T.);
#993=ORIENTED_EDGE('',*,*,#727,.F.);
#994=ORIENTED_EDGE('',*,*,#711,.F.);
#995=ORIENTED_EDGE('',*,*,#691,.T.);
#996=ORIENTED_EDGE('',*,*,#728,.T.);
#997=ORIENTED_EDGE('',*,*,#712,.T.);
#998=ORIENTED_EDGE('',*,*,#727,.T.);
#999=ORIENTED_EDGE('',*,*,#724,.T.);
#1000=ORIENTED_EDGE('',*,*,#721,.T.);
#1001=ORIENTED_EDGE('',*,*,#718,.T.);
#1002=ORIENTED_EDGE('',*,*,#715,.T.);
#1003=ORIENTED_EDGE('',*,*,#729,.F.);
#1004=ORIENTED_EDGE('',*,*,#697,.T.);
#1005=ORIENTED_EDGE('',*,*,#730,.F.);
#1006=ORIENTED_EDGE('',*,*,#731,.F.);
#1007=ORIENTED_EDGE('',*,*,#732,.F.);
#1008=ORIENTED_EDGE('',*,*,#731,.T.);
#1009=ORIENTED_EDGE('',*,*,#733,.F.);
#1010=ORIENTED_EDGE('',*,*,#734,.F.);
#1011=ORIENTED_EDGE('',*,*,#735,.F.);
#1012=ORIENTED_EDGE('',*,*,#734,.T.);
#1013=ORIENTED_EDGE('',*,*,#736,.F.);
#1014=ORIENTED_EDGE('',*,*,#737,.F.);
#1015=ORIENTED_EDGE('',*,*,#738,.F.);
#1016=ORIENTED_EDGE('',*,*,#737,.T.);
#1017=ORIENTED_EDGE('',*,*,#739,.F.);
#1018=ORIENTED_EDGE('',*,*,#740,.F.);
#1019=ORIENTED_EDGE('',*,*,#741,.F.);
#1020=ORIENTED_EDGE('',*,*,#740,.T.);
#1021=ORIENTED_EDGE('',*,*,#742,.F.);
#1022=ORIENTED_EDGE('',*,*,#743,.F.);
#1023=ORIENTED_EDGE('',*,*,#696,.T.);
#1024=ORIENTED_EDGE('',*,*,#744,.T.);
#1025=ORIENTED_EDGE('',*,*,#745,.T.);
#1026=ORIENTED_EDGE('',*,*,#742,.T.);
#1027=ORIENTED_EDGE('',*,*,#739,.T.);
#1028=ORIENTED_EDGE('',*,*,#736,.T.);
#1029=ORIENTED_EDGE('',*,*,#733,.T.);
#1030=ORIENTED_EDGE('',*,*,#730,.T.);
#1031=ORIENTED_EDGE('',*,*,#690,.F.);
#1032=ORIENTED_EDGE('',*,*,#707,.F.);
#1033=ORIENTED_EDGE('',*,*,#713,.F.);
#1034=ORIENTED_EDGE('',*,*,#728,.F.);
#1035=ORIENTED_EDGE('',*,*,#708,.F.);
#1036=ORIENTED_EDGE('',*,*,#746,.T.);
#1037=ORIENTED_EDGE('',*,*,#747,.T.);
#1038=ORIENTED_EDGE('',*,*,#746,.F.);
#1039=ORIENTED_EDGE('',*,*,#695,.T.);
#1040=ORIENTED_EDGE('',*,*,#700,.F.);
#1041=ORIENTED_EDGE('',*,*,#748,.F.);
#1042=ORIENTED_EDGE('',*,*,#744,.F.);
#1043=ORIENTED_EDGE('',*,*,#677,.T.);
#1044=ORIENTED_EDGE('',*,*,#749,.T.);
#1045=ORIENTED_EDGE('',*,*,#743,.T.);
#1046=ORIENTED_EDGE('',*,*,#745,.F.);
#1047=ORIENTED_EDGE('',*,*,#748,.T.);
#1048=ORIENTED_EDGE('',*,*,#699,.F.);
#1049=ORIENTED_EDGE('',*,*,#709,.F.);
#1050=ORIENTED_EDGE('',*,*,#750,.T.);
#1051=ORIENTED_EDGE('',*,*,#751,.T.);
#1052=ORIENTED_EDGE('',*,*,#750,.F.);
#1053=ORIENTED_EDGE('',*,*,#752,.T.);
#1054=ORIENTED_EDGE('',*,*,#753,.T.);
#1055=ORIENTED_EDGE('',*,*,#703,.F.);
#1056=ORIENTED_EDGE('',*,*,#754,.F.);
#1057=ORIENTED_EDGE('',*,*,#755,.T.);
#1058=ORIENTED_EDGE('',*,*,#754,.T.);
#1059=ORIENTED_EDGE('',*,*,#702,.F.);
#1060=ORIENTED_EDGE('',*,*,#756,.F.);
#1061=ORIENTED_EDGE('',*,*,#681,.T.);
#1062=ORIENTED_EDGE('',*,*,#757,.T.);
#1063=ORIENTED_EDGE('',*,*,#756,.T.);
#1064=ORIENTED_EDGE('',*,*,#701,.F.);
#1065=ORIENTED_EDGE('',*,*,#685,.T.);
#1066=ORIENTED_EDGE('',*,*,#705,.F.);
#1067=ORIENTED_EDGE('',*,*,#758,.F.);
#1068=ORIENTED_EDGE('',*,*,#759,.T.);
#1069=ORIENTED_EDGE('',*,*,#760,.T.);
#1070=ORIENTED_EDGE('',*,*,#758,.T.);
#1071=ORIENTED_EDGE('',*,*,#704,.F.);
#1072=ORIENTED_EDGE('',*,*,#753,.F.);
#1073=ORIENTED_EDGE('',*,*,#680,.T.);
#1074=ORIENTED_EDGE('',*,*,#693,.F.);
#1075=ORIENTED_EDGE('',*,*,#714,.T.);
#1076=ORIENTED_EDGE('',*,*,#717,.T.);
#1077=ORIENTED_EDGE('',*,*,#720,.T.);
#1078=ORIENTED_EDGE('',*,*,#723,.T.);
#1079=ORIENTED_EDGE('',*,*,#726,.T.);
#1080=ORIENTED_EDGE('',*,*,#710,.F.);
#1081=ORIENTED_EDGE('',*,*,#686,.T.);
#1082=ORIENTED_EDGE('',*,*,#759,.F.);
#1083=ORIENTED_EDGE('',*,*,#760,.F.);
#1084=ORIENTED_EDGE('',*,*,#752,.F.);
#1085=ORIENTED_EDGE('',*,*,#755,.F.);
#1086=ORIENTED_EDGE('',*,*,#757,.F.);
#1087=ORIENTED_EDGE('',*,*,#684,.T.);
#1088=ORIENTED_EDGE('',*,*,#698,.F.);
#1089=ORIENTED_EDGE('',*,*,#729,.T.);
#1090=ORIENTED_EDGE('',*,*,#732,.T.);
#1091=ORIENTED_EDGE('',*,*,#735,.T.);
#1092=ORIENTED_EDGE('',*,*,#738,.T.);
#1093=ORIENTED_EDGE('',*,*,#741,.T.);
#1094=ORIENTED_EDGE('',*,*,#749,.F.);
#1095=ORIENTED_EDGE('',*,*,#751,.F.);
#1096=ORIENTED_EDGE('',*,*,#747,.F.);
#1097=PLANE('',#1224);
#1098=PLANE('',#1231);
#1099=PLANE('',#1234);
#1100=PLANE('',#1235);
#1101=PLANE('',#1238);
#1102=PLANE('',#1239);
#1103=PLANE('',#1240);
#1104=PLANE('',#1243);
#1105=PLANE('',#1244);
#1106=PLANE('',#1245);
#1107=PLANE('',#1246);
#1108=PLANE('',#1247);
#1109=PLANE('',#1248);
#1110=PLANE('',#1249);
#1111=PLANE('',#1250);
#1112=PLANE('',#1251);
#1113=PLANE('',#1252);
#1114=PLANE('',#1253);
#1115=PLANE('',#1254);
#1116=PLANE('',#1255);
#1117=PLANE('',#1256);
#1118=PLANE('',#1257);
#1119=PLANE('',#1258);
#1120=PLANE('',#1259);
#1121=PLANE('',#1260);
#1122=PLANE('',#1261);
#1123=PLANE('',#1262);
#1124=PLANE('',#1263);
#1125=PLANE('',#1264);
#1126=PLANE('',#1265);
#1127=PLANE('',#1266);
#1128=PLANE('',#1267);
#1129=PLANE('',#1272);
#1130=PLANE('',#1273);
#1131=PLANE('',#1274);
#1132=PLANE('',#1275);
#1133=PLANE('',#1276);
#1134=PLANE('',#1277);
#1135=PLANE('',#1278);
#1136=PLANE('',#1279);
#1137=PLANE('',#1280);
#1138=PLANE('',#1281);
#1139=PLANE('',#1282);
#1140=PLANE('',#1283);
#1141=PLANE('',#1284);
#1142=PLANE('',#1285);
#1143=PLANE('',#1288);
#1144=PLANE('',#1289);
#1145=PLANE('',#1292);
#1146=PLANE('',#1295);
#1147=PLANE('',#1296);
#1148=PLANE('',#1299);
#1149=ADVANCED_FACE('',(#33,#25,#26),#1097,.T.);
#1150=ADVANCED_FACE('',(#34),#17,.T.);
#1151=ADVANCED_FACE('',(#35),#1098,.T.);
#1152=ADVANCED_FACE('',(#36),#18,.T.);
#1153=ADVANCED_FACE('',(#37),#1099,.T.);
#1154=ADVANCED_FACE('',(#38),#1100,.T.);
#1155=ADVANCED_FACE('',(#39),#19,.F.);
#1156=ADVANCED_FACE('',(#40),#1101,.T.);
#1157=ADVANCED_FACE('',(#41),#1102,.T.);
#1158=ADVANCED_FACE('',(#42),#1103,.T.);
#1159=ADVANCED_FACE('',(#43),#20,.F.);
#1160=ADVANCED_FACE('',(#44),#1104,.T.);
#1161=ADVANCED_FACE('',(#45),#1105,.T.);
#1162=ADVANCED_FACE('',(#46),#1106,.T.);
#1163=ADVANCED_FACE('',(#47),#1107,.T.);
#1164=ADVANCED_FACE('',(#48),#1108,.T.);
#1165=ADVANCED_FACE('',(#49),#1109,.T.);
#1166=ADVANCED_FACE('',(#50),#1110,.T.);
#1167=ADVANCED_FACE('',(#51),#1111,.T.);
#1168=ADVANCED_FACE('',(#52),#1112,.T.);
#1169=ADVANCED_FACE('',(#53),#1113,.T.);
#1170=ADVANCED_FACE('',(#54),#1114,.T.);
#1171=ADVANCED_FACE('',(#55),#1115,.T.);
#1172=ADVANCED_FACE('',(#56),#1116,.T.);
#1173=ADVANCED_FACE('',(#57,#27,#28),#1117,.F.);
#1174=ADVANCED_FACE('',(#58),#1118,.T.);
#1175=ADVANCED_FACE('',(#59),#1119,.T.);
#1176=ADVANCED_FACE('',(#60),#1120,.T.);
#1177=ADVANCED_FACE('',(#61),#1121,.T.);
#1178=ADVANCED_FACE('',(#62),#1122,.T.);
#1179=ADVANCED_FACE('',(#63),#1123,.F.);
#1180=ADVANCED_FACE('',(#64),#1124,.F.);
#1181=ADVANCED_FACE('',(#65),#1125,.F.);
#1182=ADVANCED_FACE('',(#66),#1126,.T.);
#1183=ADVANCED_FACE('',(#67),#1127,.T.);
#1184=ADVANCED_FACE('',(#68,#29,#30),#1128,.T.);
#1185=ADVANCED_FACE('',(#69),#1129,.T.);
#1186=ADVANCED_FACE('',(#70),#1130,.T.);
#1187=ADVANCED_FACE('',(#71),#1131,.T.);
#1188=ADVANCED_FACE('',(#72),#1132,.T.);
#1189=ADVANCED_FACE('',(#73),#1133,.T.);
#1190=ADVANCED_FACE('',(#74),#1134,.T.);
#1191=ADVANCED_FACE('',(#75),#1135,.T.);
#1192=ADVANCED_FACE('',(#76),#1136,.T.);
#1193=ADVANCED_FACE('',(#77),#1137,.T.);
#1194=ADVANCED_FACE('',(#78),#1138,.T.);
#1195=ADVANCED_FACE('',(#79),#1139,.T.);
#1196=ADVANCED_FACE('',(#80),#1140,.T.);
#1197=ADVANCED_FACE('',(#81),#1141,.T.);
#1198=ADVANCED_FACE('',(#82),#1142,.T.);
#1199=ADVANCED_FACE('',(#83),#21,.F.);
#1200=ADVANCED_FACE('',(#84),#1143,.T.);
#1201=ADVANCED_FACE('',(#85),#1144,.T.);
#1202=ADVANCED_FACE('',(#86),#22,.F.);
#1203=ADVANCED_FACE('',(#87),#1145,.T.);
#1204=ADVANCED_FACE('',(#88),#23,.T.);
#1205=ADVANCED_FACE('',(#89),#1146,.T.);
#1206=ADVANCED_FACE('',(#90),#1147,.T.);
#1207=ADVANCED_FACE('',(#91),#24,.T.);
#1208=ADVANCED_FACE('',(#92,#31,#32),#1148,.F.);
#1209=CLOSED_SHELL('',(#1149,#1150,#1151,#1152,#1153,#1154,#1155,#1156,
#1157,#1158,#1159,#1160,#1161,#1162,#1163,#1164,#1165,#1166,#1167,#1168,
#1169,#1170,#1171,#1172,#1173,#1174,#1175,#1176,#1177,#1178));
#1210=CLOSED_SHELL('',(#1179,#1180,#1181,#1182,#1183,#1184,#1185,#1186,
#1187,#1188,#1189,#1190,#1191,#1192,#1193,#1194,#1195,#1196,#1197,#1198,
#1199,#1200,#1201,#1202,#1203,#1204,#1205,#1206,#1207,#1208));
#1211=DERIVED_UNIT_ELEMENT(#1213,1.);
#1212=DERIVED_UNIT_ELEMENT(#1952,-3.);
#1213=(
MASS_UNIT()
NAMED_UNIT(*)
SI_UNIT(.KILO.,.GRAM.)
);
#1214=DERIVED_UNIT((#1211,#1212));
#1215=MEASURE_REPRESENTATION_ITEM('density measure',
POSITIVE_RATIO_MEASURE(7850.),#1214);
#1216=PROPERTY_DEFINITION_REPRESENTATION(#1221,#1218);
#1217=PROPERTY_DEFINITION_REPRESENTATION(#1222,#1219);
#1218=REPRESENTATION('material name',(#1220),#1949);
#1219=REPRESENTATION('density',(#1215),#1949);
#1220=DESCRIPTIVE_REPRESENTATION_ITEM('Steel','Steel');
#1221=PROPERTY_DEFINITION('material property','material name',#1959);
#1222=PROPERTY_DEFINITION('material property','density of part',#1959);
#1223=AXIS2_PLACEMENT_3D('',#1606,#1300,#1301);
#1224=AXIS2_PLACEMENT_3D('',#1607,#1302,#1303);
#1225=AXIS2_PLACEMENT_3D('',#1622,#1310,#1311);
#1226=AXIS2_PLACEMENT_3D('',#1626,#1313,#1314);
#1227=AXIS2_PLACEMENT_3D('',#1637,#1320,#1321);
#1228=AXIS2_PLACEMENT_3D('',#1639,#1322,#1323);
#1229=AXIS2_PLACEMENT_3D('',#1640,#1324,#1325);
#1230=AXIS2_PLACEMENT_3D('',#1643,#1326,#1327);
#1231=AXIS2_PLACEMENT_3D('',#1646,#1330,#1331);
#1232=AXIS2_PLACEMENT_3D('',#1650,#1334,#1335);
#1233=AXIS2_PLACEMENT_3D('',#1652,#1336,#1337);
#1234=AXIS2_PLACEMENT_3D('',#1654,#1339,#1340);
#1235=AXIS2_PLACEMENT_3D('',#1660,#1344,#1345);
#1236=AXIS2_PLACEMENT_3D('',#1668,#1350,#1351);
#1237=AXIS2_PLACEMENT_3D('',#1671,#1353,#1354);
#1238=AXIS2_PLACEMENT_3D('',#1672,#1355,#1356);
#1239=AXIS2_PLACEMENT_3D('',#1682,#1362,#1363);
#1240=AXIS2_PLACEMENT_3D('',#1686,#1366,#1367);
#1241=AXIS2_PLACEMENT_3D('',#1694,#1372,#1373);
#1242=AXIS2_PLACEMENT_3D('',#1697,#1375,#1376);
#1243=AXIS2_PLACEMENT_3D('',#1698,#1377,#1378);
#1244=AXIS2_PLACEMENT_3D('',#1710,#1385,#1386);
#1245=AXIS2_PLACEMENT_3D('',#1714,#1389,#1390);
#1246=AXIS2_PLACEMENT_3D('',#1718,#1393,#1394);
#1247=AXIS2_PLACEMENT_3D('',#1722,#1397,#1398);
#1248=AXIS2_PLACEMENT_3D('',#1726,#1401,#1402);
#1249=AXIS2_PLACEMENT_3D('',#1730,#1405,#1406);
#1250=AXIS2_PLACEMENT_3D('',#1740,#1412,#1413);
#1251=AXIS2_PLACEMENT_3D('',#1744,#1416,#1417);
#1252=AXIS2_PLACEMENT_3D('',#1748,#1420,#1421);
#1253=AXIS2_PLACEMENT_3D('',#1752,#1424,#1425);
#1254=AXIS2_PLACEMENT_3D('',#1756,#1428,#1429);
#1255=AXIS2_PLACEMENT_3D('',#1758,#1431,#1432);
#1256=AXIS2_PLACEMENT_3D('',#1762,#1435,#1436);
#1257=AXIS2_PLACEMENT_3D('',#1770,#1442,#1443);
#1258=AXIS2_PLACEMENT_3D('',#1772,#1445,#1446);
#1259=AXIS2_PLACEMENT_3D('',#1774,#1448,#1449);
#1260=AXIS2_PLACEMENT_3D('',#1775,#1450,#1451);
#1261=AXIS2_PLACEMENT_3D('',#1776,#1452,#1453);
#1262=AXIS2_PLACEMENT_3D('',#1777,#1454,#1455);
#1263=AXIS2_PLACEMENT_3D('',#1786,#1460,#1461);
#1264=AXIS2_PLACEMENT_3D('',#1795,#1466,#1467);
#1265=AXIS2_PLACEMENT_3D('',#1804,#1472,#1473);
#1266=AXIS2_PLACEMENT_3D('',#1814,#1479,#1480);
#1267=AXIS2_PLACEMENT_3D('',#1824,#1486,#1487);
#1268=AXIS2_PLACEMENT_3D('',#1831,#1491,#1492);
#1269=AXIS2_PLACEMENT_3D('',#1835,#1494,#1495);
#1270=AXIS2_PLACEMENT_3D('',#1841,#1499,#1500);
#1271=AXIS2_PLACEMENT_3D('',#1843,#1501,#1502);
#1272=AXIS2_PLACEMENT_3D('',#1844,#1503,#1504);
#1273=AXIS2_PLACEMENT_3D('',#1852,#1509,#1510);
#1274=AXIS2_PLACEMENT_3D('',#1858,#1514,#1515);
#1275=AXIS2_PLACEMENT_3D('',#1864,#1519,#1520);
#1276=AXIS2_PLACEMENT_3D('',#1870,#1524,#1525);
#1277=AXIS2_PLACEMENT_3D('',#1876,#1529,#1530);
#1278=AXIS2_PLACEMENT_3D('',#1879,#1533,#1534);
#1279=AXIS2_PLACEMENT_3D('',#1881,#1536,#1537);
#1280=AXIS2_PLACEMENT_3D('',#1887,#1541,#1542);
#1281=AXIS2_PLACEMENT_3D('',#1893,#1546,#1547);
#1282=AXIS2_PLACEMENT_3D('',#1899,#1551,#1552);
#1283=AXIS2_PLACEMENT_3D('',#1905,#1556,#1557);
#1284=AXIS2_PLACEMENT_3D('',#1911,#1561,#1562);
#1285=AXIS2_PLACEMENT_3D('',#1915,#1565,#1566);
#1286=AXIS2_PLACEMENT_3D('',#1916,#1567,#1568);
#1287=AXIS2_PLACEMENT_3D('',#1919,#1570,#1571);
#1288=AXIS2_PLACEMENT_3D('',#1920,#1572,#1573);
#1289=AXIS2_PLACEMENT_3D('',#1922,#1575,#1576);
#1290=AXIS2_PLACEMENT_3D('',#1924,#1578,#1579);
#1291=AXIS2_PLACEMENT_3D('',#1927,#1581,#1582);
#1292=AXIS2_PLACEMENT_3D('',#1928,#1583,#1584);
#1293=AXIS2_PLACEMENT_3D('',#1934,#1588,#1589);
#1294=AXIS2_PLACEMENT_3D('',#1936,#1590,#1591);
#1295=AXIS2_PLACEMENT_3D('',#1938,#1593,#1594);
#1296=AXIS2_PLACEMENT_3D('',#1940,#1596,#1597);
#1297=AXIS2_PLACEMENT_3D('',#1944,#1600,#1601);
#1298=AXIS2_PLACEMENT_3D('',#1945,#1602,#1603);
#1299=AXIS2_PLACEMENT_3D('',#1946,#1604,#1605);
#1300=DIRECTION('axis',(0.,0.,1.));
#1301=DIRECTION('refdir',(1.,0.,0.));
#1302=DIRECTION('center_axis',(3.91916382493176E-17,6.22587009603644E-18,
1.));
#1303=DIRECTION('ref_axis',(-1.,1.97826433896319E-31,3.91916382493176E-17));
#1304=DIRECTION('',(1.,-1.97826433896319E-31,-3.91916382493176E-17));
#1305=DIRECTION('',(-1.97582431847728E-31,-1.,6.22587009603647E-18));
#1306=DIRECTION('',(-1.,1.97826433896319E-31,3.91916382493179E-17));
#1307=DIRECTION('',(1.97582431847728E-31,1.,-6.22587009603646E-18));
#1308=DIRECTION('',(1.,-1.97826433896319E-31,-3.91916382493176E-17));
#1309=DIRECTION('',(-1.72421000036483E-15,-1.,6.22587009603651E-18));
#1310=DIRECTION('center_axis',(3.91916382493176E-17,6.22587009603644E-18,
1.));
#1311=DIRECTION('ref_axis',(-1.,-8.88178419700127E-15,3.91916382493176E-17));
#1312=DIRECTION('',(1.,-1.78308546379192E-15,-3.91916382493179E-17));
#1313=DIRECTION('center_axis',(3.91916382493179E-17,6.22587009603622E-18,
1.));
#1314=DIRECTION('ref_axis',(-1.97582431847728E-31,-1.,6.22587009603622E-18));
#1315=DIRECTION('',(4.03717463500058E-15,1.,-6.2258700960366E-18));
#1316=DIRECTION('',(1.,-1.97826433896319E-31,-3.91916382493176E-17));
#1317=DIRECTION('',(-2.53765262771464E-15,-1.,6.22587009603656E-18));
#1318=DIRECTION('',(-1.,2.8421709430404E-15,3.91916382493179E-17));
#1319=DIRECTION('',(2.53765262771464E-15,1.,-6.22587009603657E-18));
#1320=DIRECTION('center_axis',(-3.9191638249318E-17,-6.22587009603644E-18,
-1.));
#1321=DIRECTION('ref_axis',(-1.,1.97826433896319E-31,3.9191638249318E-17));
#1322=DIRECTION('center_axis',(-3.91916382493179E-17,-6.22587009603645E-18,
-1.));
#1323=DIRECTION('ref_axis',(-1.,1.97826433896319E-31,3.91916382493179E-17));
#1324=DIRECTION('center_axis',(0.,0.,1.));
#1325=DIRECTION('ref_axis',(-1.,-8.88178419700127E-15,0.));
#1326=DIRECTION('center_axis',(3.91916382493176E-17,6.22587009603644E-18,
1.));
#1327=DIRECTION('ref_axis',(-1.,-8.88178419700127E-15,0.));
#1328=DIRECTION('',(0.,0.,1.));
#1329=DIRECTION('',(0.,0.,1.));
#1330=DIRECTION('center_axis',(-1.78308546379192E-15,-1.,0.));
#1331=DIRECTION('ref_axis',(1.,-1.78308546379192E-15,-3.91916382493179E-17));
#1332=DIRECTION('',(1.,-1.78308546379192E-15,-3.91916382493176E-17));
#1333=DIRECTION('',(0.,0.,1.));
#1334=DIRECTION('center_axis',(0.,0.,1.));
#1335=DIRECTION('ref_axis',(-1.97582431847728E-31,-1.,0.));
#1336=DIRECTION('center_axis',(3.91916382493176E-17,6.22587009603644E-18,
1.));
#1337=DIRECTION('ref_axis',(-1.97582431847728E-31,-1.,0.));
#1338=DIRECTION('',(0.,0.,1.));
#1339=DIRECTION('center_axis',(2.8421709430404E-15,1.,0.));
#1340=DIRECTION('ref_axis',(-1.,2.8421709430404E-15,3.91916382493179E-17));
#1341=DIRECTION('',(0.,0.,1.));
#1342=DIRECTION('',(0.,0.,-1.));
#1343=DIRECTION('',(1.,-2.8421709430404E-15,0.));
#1344=DIRECTION('center_axis',(-1.,2.53765262771464E-15,0.));
#1345=DIRECTION('ref_axis',(-2.53765262771464E-15,-1.,6.22587009603656E-18));
#1346=DIRECTION('',(0.,0.,1.));
#1347=DIRECTION('',(-2.53765262771464E-15,-1.,6.22587009603654E-18));
#1348=DIRECTION('',(0.,0.,1.));
#1349=DIRECTION('',(2.53765262771464E-15,1.,0.));
#1350=DIRECTION('center_axis',(0.,0.,1.));
#1351=DIRECTION('ref_axis',(-1.,1.97826433896319E-31,0.));
#1352=DIRECTION('',(0.,0.,-1.));
#1353=DIRECTION('center_axis',(-3.91916382493176E-17,-6.22587009603644E-18,
-1.));
#1354=DIRECTION('ref_axis',(-1.,1.97826433896319E-31,0.));
#1355=DIRECTION('center_axis',(-1.,1.97582431847728E-31,0.));
#1356=DIRECTION('ref_axis',(-1.97582431847728E-31,-1.,6.22587009603647E-18));
#1357=DIRECTION('',(0.,0.,1.));
#1358=DIRECTION('',(-1.97582431847728E-31,-1.,6.22587009603644E-18));
#1359=DIRECTION('',(0.,0.,1.));
#1360=DIRECTION('',(0.,1.,0.));
#1361=DIRECTION('',(0.,0.,1.));
#1362=DIRECTION('center_axis',(1.97826433896319E-31,1.,0.));
#1363=DIRECTION('ref_axis',(-1.,1.97826433896319E-31,3.91916382493179E-17));
#1364=DIRECTION('',(0.,0.,1.));
#1365=DIRECTION('',(1.,0.,0.));
#1366=DIRECTION('center_axis',(1.,-1.97582431847728E-31,0.));
#1367=DIRECTION('ref_axis',(1.97582431847728E-31,1.,-6.22587009603646E-18));
#1368=DIRECTION('',(0.,0.,-1.));
#1369=DIRECTION('',(0.,-1.,0.));
#1370=DIRECTION('',(0.,0.,-1.));
#1371=DIRECTION('',(1.97582431847728E-31,1.,-6.22587009603644E-18));
#1372=DIRECTION('center_axis',(0.,0.,1.));
#1373=DIRECTION('ref_axis',(-1.,1.97826433896319E-31,0.));
#1374=DIRECTION('',(0.,0.,-1.));
#1375=DIRECTION('center_axis',(-3.91916382493176E-17,-6.22587009603644E-18,
-1.));
#1376=DIRECTION('ref_axis',(-1.,1.97826433896319E-31,0.));
#1377=DIRECTION('center_axis',(0.,0.,-1.));
#1378=DIRECTION('ref_axis',(-1.,0.,0.));
#1379=DIRECTION('',(-2.53765262771464E-15,-1.,0.));
#1380=DIRECTION('',(-1.,1.88974131851091E-15,0.));
#1381=DIRECTION('',(2.51965509134788E-15,1.,0.));
#1382=DIRECTION('',(1.,-1.88974131851091E-15,0.));
#1383=DIRECTION('',(-2.51965509134788E-15,-1.,0.));
#1384=DIRECTION('',(-1.,1.88974131851091E-15,0.));
#1385=DIRECTION('center_axis',(1.88974131851091E-15,1.,0.));
#1386=DIRECTION('ref_axis',(1.,-1.88974131851091E-15,-8.74180967665132E-33));
#1387=DIRECTION('',(1.,-1.88974131851091E-15,-3.91916382493176E-17));
#1388=DIRECTION('',(0.,0.,-1.));
#1389=DIRECTION('center_axis',(1.,-2.51965509134788E-15,0.));
#1390=DIRECTION('ref_axis',(-2.51965509134788E-15,-1.,-3.93696108023107E-17));
#1391=DIRECTION('',(-2.51965509134788E-15,-1.,6.22587009603654E-18));
#1392=DIRECTION('',(0.,0.,1.));
#1393=DIRECTION('center_axis',(-1.88974131851091E-15,-1.,0.));
#1394=DIRECTION('ref_axis',(-1.,1.88974131851091E-15,-3.27817862874424E-33));
#1395=DIRECTION('',(-1.,1.88974131851091E-15,3.91916382493176E-17));
#1396=DIRECTION('',(0.,0.,-1.));
#1397=DIRECTION('center_axis',(-1.,2.51965509134788E-15,0.));
#1398=DIRECTION('ref_axis',(2.51965509134788E-15,1.,3.93696108023107E-17));
#1399=DIRECTION('',(2.51965509134788E-15,1.,-6.22587009603654E-18));
#1400=DIRECTION('',(0.,0.,1.));
#1401=DIRECTION('center_axis',(1.88974131851091E-15,1.,0.));
#1402=DIRECTION('ref_axis',(1.,-1.88974131851091E-15,-8.74180967665132E-33));
#1403=DIRECTION('',(1.,-1.88974131851091E-15,-3.91916382493176E-17));
#1404=DIRECTION('',(0.,0.,-1.));
#1405=DIRECTION('center_axis',(0.,0.,-1.));
#1406=DIRECTION('ref_axis',(-1.,0.,0.));
#1407=DIRECTION('',(-1.,1.88974131851091E-15,0.));
#1408=DIRECTION('',(3.14956886418485E-15,1.,0.));
#1409=DIRECTION('',(1.,-1.81100209690629E-15,0.));
#1410=DIRECTION('',(-2.51965509134788E-15,-1.,0.));
#1411=DIRECTION('',(-1.,1.88974131851091E-15,0.));
#1412=DIRECTION('center_axis',(1.88974131851091E-15,1.,0.));
#1413=DIRECTION('ref_axis',(1.,-1.88974131851091E-15,-7.87392216046213E-17));
#1414=DIRECTION('',(1.,-1.88974131851091E-15,-3.91916382493176E-17));
#1415=DIRECTION('',(0.,0.,-1.));
#1416=DIRECTION('center_axis',(1.,-3.14956886418485E-15,0.));
#1417=DIRECTION('ref_axis',(-3.14956886418485E-15,-1.,7.87392216046213E-17));
#1418=DIRECTION('',(-3.14956886418485E-15,-1.,6.22587009603656E-18));
#1419=DIRECTION('',(0.,0.,1.));
#1420=DIRECTION('center_axis',(-1.81100209690629E-15,-1.,0.));
#1421=DIRECTION('ref_axis',(-1.,1.81100209690629E-15,-4.37090483832566E-33));
#1422=DIRECTION('',(-1.,1.81100209690629E-15,3.91916382493176E-17));
#1423=DIRECTION('',(0.,0.,-1.));
#1424=DIRECTION('center_axis',(-1.,2.51965509134788E-15,0.));
#1425=DIRECTION('ref_axis',(2.51965509134788E-15,1.,4.37090483832566E-33));
#1426=DIRECTION('',(2.51965509134788E-15,1.,-6.22587009603654E-18));
#1427=DIRECTION('',(0.,0.,-1.));
#1428=DIRECTION('center_axis',(1.88974131851091E-15,1.,0.));
#1429=DIRECTION('ref_axis',(1.,-1.88974131851091E-15,-7.87392216046213E-17));
#1430=DIRECTION('',(1.,-1.88974131851091E-15,-3.91916382493176E-17));
#1431=DIRECTION('center_axis',(-1.,1.72421000036483E-15,0.));
#1432=DIRECTION('ref_axis',(-1.72421000036483E-15,-1.,6.22587009603651E-18));
#1433=DIRECTION('',(0.,0.,1.));
#1434=DIRECTION('',(-1.72421000036483E-15,-1.,6.22587009603651E-18));
#1435=DIRECTION('center_axis',(3.91916382493176E-17,6.22587009603644E-18,
1.));
#1436=DIRECTION('ref_axis',(-1.,1.97826433896319E-31,3.91916382493176E-17));
#1437=DIRECTION('',(-1.,1.97826433896319E-31,3.91916382493176E-17));
#1438=DIRECTION('',(2.53765262771464E-15,1.,-6.22587009603654E-18));
#1439=DIRECTION('',(-1.,1.97826433896319E-31,3.91916382493176E-17));
#1440=DIRECTION('',(4.03717463500058E-15,1.,-6.2258700960366E-18));
#1441=DIRECTION('',(-1.,1.97826433896319E-31,3.91916382493176E-17));
#1442=DIRECTION('center_axis',(1.,-4.03717463500058E-15,0.));
#1443=DIRECTION('ref_axis',(4.03717463500058E-15,1.,-6.2258700960366E-18));
#1444=DIRECTION('',(0.,0.,-1.));
#1445=DIRECTION('center_axis',(1.,-2.53765262771464E-15,0.));
#1446=DIRECTION('ref_axis',(2.53765262771464E-15,1.,-6.22587009603657E-18));
#1447=DIRECTION('',(0.,0.,-1.));
#1448=DIRECTION('center_axis',(1.97826433896319E-31,1.,0.));
#1449=DIRECTION('ref_axis',(0.,0.,1.));
#1450=DIRECTION('center_axis',(1.97826433896319E-31,1.,0.));
#1451=DIRECTION('ref_axis',(0.,0.,1.));
#1452=DIRECTION('center_axis',(1.97826433896319E-31,1.,0.));
#1453=DIRECTION('ref_axis',(0.,0.,1.));
#1454=DIRECTION('center_axis',(1.97826433896319E-31,1.,0.));
#1455=DIRECTION('ref_axis',(0.,0.,1.));
#1456=DIRECTION('',(0.,0.,-1.));
#1457=DIRECTION('',(1.,-1.97826433896319E-31,-3.91916382493176E-17));
#1458=DIRECTION('',(0.,0.,1.));
#1459=DIRECTION('',(-1.,1.97826433896319E-31,3.91916382493176E-17));
#1460=DIRECTION('center_axis',(1.97826433896319E-31,1.,0.));
#1461=DIRECTION('ref_axis',(0.,0.,1.));
#1462=DIRECTION('',(0.,0.,-1.));
#1463=DIRECTION('',(1.,-1.97826433896319E-31,-3.91916382493176E-17));
#1464=DIRECTION('',(0.,0.,1.));
#1465=DIRECTION('',(-1.,1.97826433896319E-31,3.91916382493176E-17));
#1466=DIRECTION('center_axis',(1.97826433896319E-31,1.,0.));
#1467=DIRECTION('ref_axis',(0.,0.,1.));
#1468=DIRECTION('',(0.,0.,1.));
#1469=DIRECTION('',(-1.,1.97826433896319E-31,3.91916382493176E-17));
#1470=DIRECTION('',(0.,0.,-1.));
#1471=DIRECTION('',(1.,-1.97826433896319E-31,-3.91916382493176E-17));
#1472=DIRECTION('center_axis',(-1.,1.97582431847728E-31,0.));
#1473=DIRECTION('ref_axis',(-1.97582431847728E-31,-1.,6.22587009603647E-18));
#1474=DIRECTION('',(-1.97582431847728E-31,-1.,6.22587009603647E-18));
#1475=DIRECTION('',(0.,0.,-1.));
#1476=DIRECTION('',(0.,1.,0.));
#1477=DIRECTION('',(0.,0.,-1.));
#1478=DIRECTION('',(-1.97582431847728E-31,-1.,6.22587009603644E-18));
#1479=DIRECTION('center_axis',(-1.,2.53765262771464E-15,0.));
#1480=DIRECTION('ref_axis',(-2.53765262771464E-15,-1.,6.22587009603656E-18));
#1481=DIRECTION('',(-2.53765262771464E-15,-1.,6.22587009603656E-18));
#1482=DIRECTION('',(0.,0.,1.));
#1483=DIRECTION('',(2.53765262771464E-15,1.,0.));
#1484=DIRECTION('',(0.,0.,-1.));
#1485=DIRECTION('',(-2.53765262771464E-15,-1.,6.22587009603654E-18));
#1486=DIRECTION('center_axis',(3.91916382493176E-17,6.22587009603644E-18,
1.));
#1487=DIRECTION('ref_axis',(-1.,1.97826433896319E-31,3.91916382493176E-17));
#1488=DIRECTION('',(2.53765262771464E-15,1.,-6.22587009603657E-18));
#1489=DIRECTION('',(1.,-2.8421709430404E-15,-3.91916382493179E-17));
#1490=DIRECTION('',(4.03717463500058E-15,1.,-6.2258700960366E-18));
#1491=DIRECTION('center_axis',(3.91916382493175E-17,6.22587009603644E-18,
1.));
#1492=DIRECTION('ref_axis',(1.,-5.10702591327555E-14,-3.91916382493172E-17));
#1493=DIRECTION('',(-1.,-5.38289951333411E-16,3.9191638249318E-17));
#1494=DIRECTION('center_axis',(3.9191638249318E-17,6.22587009603622E-18,
1.));
#1495=DIRECTION('ref_axis',(-1.77635683940025E-14,1.,-6.22587009603552E-18));
#1496=DIRECTION('',(-1.72421000036483E-15,-1.,6.22587009603651E-18));
#1497=DIRECTION('',(1.97582431847728E-31,1.,-6.22587009603646E-18));
#1498=DIRECTION('',(1.,-1.97826433896319E-31,-3.91916382493179E-17));
#1499=DIRECTION('center_axis',(-3.9191638249318E-17,-6.22587009603644E-18,
-1.));
#1500=DIRECTION('ref_axis',(-1.,1.97826433896319E-31,3.9191638249318E-17));
#1501=DIRECTION('center_axis',(-3.91916382493179E-17,-6.22587009603645E-18,
-1.));
#1502=DIRECTION('ref_axis',(-1.,1.97826433896319E-31,3.91916382493179E-17));
#1503=DIRECTION('center_axis',(1.,-1.97582431847728E-31,0.));
#1504=DIRECTION('ref_axis',(1.97582431847728E-31,1.,-6.22587009603646E-18));
#1505=DIRECTION('',(1.97582431847728E-31,1.,-6.22587009603644E-18));
#1506=DIRECTION('',(0.,0.,1.));
#1507=DIRECTION('',(0.,-1.,0.));
#1508=DIRECTION('',(0.,0.,1.));
#1509=DIRECTION('center_axis',(-1.57478443209243E-15,-1.,0.));
#1510=DIRECTION('ref_axis',(-1.,1.57478443209243E-15,-1.09272620958141E-33));
#1511=DIRECTION('',(-1.,1.57478443209243E-15,3.91916382493176E-17));
#1512=DIRECTION('',(1.,-1.57478443209243E-15,0.));
#1513=DIRECTION('',(0.,0.,1.));
#1514=DIRECTION('center_axis',(1.,-2.2046982049294E-15,0.));
#1515=DIRECTION('ref_axis',(-2.2046982049294E-15,-1.,2.18545241916283E-33));
#1516=DIRECTION('',(-2.2046982049294E-15,-1.,6.22587009603653E-18));
#1517=DIRECTION('',(2.2046982049294E-15,1.,0.));
#1518=DIRECTION('',(0.,0.,-1.));
#1519=DIRECTION('center_axis',(1.57478443209243E-15,1.,0.));
#1520=DIRECTION('ref_axis',(1.,-1.57478443209243E-15,6.55635725748849E-33));
#1521=DIRECTION('',(1.,-1.57478443209243E-15,-3.91916382493176E-17));
#1522=DIRECTION('',(-1.,1.57478443209243E-15,0.));
#1523=DIRECTION('',(0.,0.,-1.));
#1524=DIRECTION('center_axis',(-1.,2.44091586974326E-15,0.));
#1525=DIRECTION('ref_axis',(2.44091586974326E-15,1.,-7.6490834670699E-33));
#1526=DIRECTION('',(2.44091586974326E-15,1.,-6.22587009603654E-18));
#1527=DIRECTION('',(-2.44091586974326E-15,-1.,0.));
#1528=DIRECTION('',(0.,0.,1.));
#1529=DIRECTION('center_axis',(-1.57478443209243E-15,-1.,0.));
#1530=DIRECTION('ref_axis',(-1.,1.57478443209243E-15,-1.09272620958141E-33));
#1531=DIRECTION('',(-1.,1.57478443209243E-15,3.91916382493176E-17));
#1532=DIRECTION('',(1.,-1.57478443209243E-15,0.));
#1533=DIRECTION('center_axis',(0.,0.,-1.));
#1534=DIRECTION('ref_axis',(-1.,0.,0.));
#1535=DIRECTION('',(-1.,0.,0.));
#1536=DIRECTION('center_axis',(-1.25982754567394E-15,-1.,0.));
#1537=DIRECTION('ref_axis',(-1.,1.25982754567394E-15,0.));
#1538=DIRECTION('',(-1.,1.25982754567394E-15,3.91916382493176E-17));
#1539=DIRECTION('',(1.,-1.25982754567394E-15,0.));
#1540=DIRECTION('',(0.,0.,-1.));
#1541=DIRECTION('center_axis',(1.,-2.83461197776637E-15,0.));
#1542=DIRECTION('ref_axis',(-2.83461197776637E-15,-1.,-3.93696108023107E-17));
#1543=DIRECTION('',(-2.83461197776637E-15,-1.,6.22587009603655E-18));
#1544=DIRECTION('',(2.83461197776637E-15,1.,0.));
#1545=DIRECTION('',(0.,0.,-1.));
#1546=DIRECTION('center_axis',(2.51965509134788E-15,1.,0.));
#1547=DIRECTION('ref_axis',(1.,-2.51965509134788E-15,3.93696108023106E-17));
#1548=DIRECTION('',(1.,-2.51965509134788E-15,-3.91916382493176E-17));
#1549=DIRECTION('',(-1.,2.51965509134788E-15,0.));
#1550=DIRECTION('',(0.,0.,1.));
#1551=DIRECTION('center_axis',(-1.,2.51965509134788E-15,0.));
#1552=DIRECTION('ref_axis',(2.51965509134788E-15,1.,8.7418096766513E-33));
#1553=DIRECTION('',(2.51965509134788E-15,1.,-6.22587009603654E-18));
#1554=DIRECTION('',(-2.51965509134788E-15,-1.,0.));
#1555=DIRECTION('',(0.,0.,-1.));
#1556=DIRECTION('center_axis',(-1.25982754567394E-15,-1.,0.));
#1557=DIRECTION('ref_axis',(-1.,1.25982754567394E-15,0.));
#1558=DIRECTION('',(-1.,1.25982754567394E-15,3.91916382493176E-17));
#1559=DIRECTION('',(1.,-1.25982754567394E-15,0.));
#1560=DIRECTION('',(0.,0.,1.));
#1561=DIRECTION('center_axis',(0.,0.,-1.));
#1562=DIRECTION('ref_axis',(-1.,0.,0.));
#1563=DIRECTION('',(-1.,2.8421709430404E-15,0.));
#1564=DIRECTION('',(-2.53765262771464E-15,-1.,0.));
#1565=DIRECTION('center_axis',(-1.97826433896319E-31,-1.,0.));
#1566=DIRECTION('ref_axis',(1.,-1.97826433896319E-31,-3.91916382493179E-17));
#1567=DIRECTION('center_axis',(0.,0.,1.));
#1568=DIRECTION('ref_axis',(-1.,1.97826433896319E-31,0.));
#1569=DIRECTION('',(0.,0.,-1.));
#1570=DIRECTION('center_axis',(-3.91916382493176E-17,-6.22587009603644E-18,
-1.));
#1571=DIRECTION('ref_axis',(-1.,1.97826433896319E-31,0.));
#1572=DIRECTION('center_axis',(-2.8421709430404E-15,-1.,0.));
#1573=DIRECTION('ref_axis',(1.,-2.8421709430404E-15,-3.91916382493179E-17));
#1574=DIRECTION('',(0.,0.,1.));
#1575=DIRECTION('center_axis',(1.,-2.53765262771464E-15,0.));
#1576=DIRECTION('ref_axis',(2.53765262771464E-15,1.,-6.22587009603657E-18));
#1577=DIRECTION('',(2.53765262771464E-15,1.,-6.22587009603654E-18));
#1578=DIRECTION('center_axis',(0.,0.,1.));
#1579=DIRECTION('ref_axis',(-1.,1.97826433896319E-31,0.));
#1580=DIRECTION('',(0.,0.,-1.));
#1581=DIRECTION('center_axis',(-3.91916382493176E-17,-6.22587009603644E-18,
-1.));
#1582=DIRECTION('ref_axis',(-1.,1.97826433896319E-31,0.));
#1583=DIRECTION('center_axis',(-5.38289951333411E-16,1.,0.));
#1584=DIRECTION('ref_axis',(-1.,-5.38289951333411E-16,3.9191638249318E-17));
#1585=DIRECTION('',(-1.,-5.38289951333411E-16,3.91916382493176E-17));
#1586=DIRECTION('',(0.,0.,1.));
#1587=DIRECTION('',(0.,0.,1.));
#1588=DIRECTION('center_axis',(0.,0.,1.));
#1589=DIRECTION('ref_axis',(1.,-5.10702591327555E-14,0.));
#1590=DIRECTION('center_axis',(3.91916382493176E-17,6.22587009603644E-18,
1.));
#1591=DIRECTION('ref_axis',(1.,-5.10702591327555E-14,0.));
#1592=DIRECTION('',(0.,0.,1.));
#1593=DIRECTION('center_axis',(1.,-4.03717463500058E-15,0.));
#1594=DIRECTION('ref_axis',(4.03717463500058E-15,1.,-6.2258700960366E-18));
#1595=DIRECTION('',(4.03717463500058E-15,1.,-6.2258700960366E-18));
#1596=DIRECTION('center_axis',(-1.,1.72421000036483E-15,0.));
#1597=DIRECTION('ref_axis',(-1.72421000036483E-15,-1.,6.22587009603651E-18));
#1598=DIRECTION('',(0.,0.,1.));
#1599=DIRECTION('',(-1.72421000036483E-15,-1.,6.22587009603651E-18));
#1600=DIRECTION('center_axis',(0.,0.,1.));
#1601=DIRECTION('ref_axis',(-1.77635683940025E-14,1.,0.));
#1602=DIRECTION('center_axis',(3.91916382493176E-17,6.22587009603644E-18,
1.));
#1603=DIRECTION('ref_axis',(-1.77635683940025E-14,1.,0.));
#1604=DIRECTION('center_axis',(3.91916382493176E-17,6.22587009603644E-18,
1.));
#1605=DIRECTION('ref_axis',(-1.,1.97826433896319E-31,3.91916382493176E-17));
#1606=CARTESIAN_POINT('',(0.,0.,0.));
#1607=CARTESIAN_POINT('Origin',(41.0201016195889,44.4851235361341,7.22874549157471));
#1608=CARTESIAN_POINT('',(32.1701016196168,44.485123536054,7.22874549157471));
#1609=CARTESIAN_POINT('',(49.8701016195608,44.485123536054,7.22874549157471));
#1610=CARTESIAN_POINT('',(41.0201016195889,44.485123536054,7.22874549157471));
#1611=CARTESIAN_POINT('',(32.1701016196168,39.235123536054,7.22874549157471));
#1612=CARTESIAN_POINT('',(32.1701016196168,39.235123536054,7.22874549157471));
#1613=CARTESIAN_POINT('',(19.6701016196168,39.235123536054,7.22874549157471));
#1614=CARTESIAN_POINT('',(19.6701016196168,39.235123536054,7.22874549157471));
#1615=CARTESIAN_POINT('',(19.6701016196168,44.485123536054,7.22874549157471));
#1616=CARTESIAN_POINT('',(19.6701016196168,49.735123536054,7.22874549157471));
#1617=CARTESIAN_POINT('',(4.02010161958891,44.485123536054,7.22874549157471));
#1618=CARTESIAN_POINT('',(41.0201016195889,44.485123536054,7.22874549157471));
#1619=CARTESIAN_POINT('',(4.02010161958886,11.4851235361341,7.22874549157471));
#1620=CARTESIAN_POINT('',(4.02010161958897,77.4851235361339,7.22874549157471));
#1621=CARTESIAN_POINT('',(8.02010161958884,7.48512353613414,7.22874549157471));
#1622=CARTESIAN_POINT('Origin',(8.02010161958885,11.4851235361342,7.22874549157471));
#1623=CARTESIAN_POINT('',(74.0201016195886,7.48512353613402,7.22874549157471));
#1624=CARTESIAN_POINT('',(8.02010161958884,7.48512353613414,7.22874549157471));
#1625=CARTESIAN_POINT('',(78.0201016195886,11.485123536134,7.22874549157471));
#1626=CARTESIAN_POINT('Origin',(74.0201016195886,11.4851235361341,7.22874549157471));
#1627=CARTESIAN_POINT('',(78.0201016195887,44.485123536054,7.22874549157471));
#1628=CARTESIAN_POINT('',(78.0201016195886,11.485123536134,7.22874549157471));
#1629=CARTESIAN_POINT('',(62.3701016195608,44.485123536054,7.22874549157471));
#1630=CARTESIAN_POINT('',(41.0201016195889,44.485123536054,7.22874549157471));
#1631=CARTESIAN_POINT('',(62.3701016195608,39.2351235360539,7.22874549157471));
#1632=CARTESIAN_POINT('',(62.3701016195608,49.7351235360539,7.22874549157471));
#1633=CARTESIAN_POINT('',(49.8701016195608,39.2351235360539,7.22874549157471));
#1634=CARTESIAN_POINT('',(62.3701016195608,39.2351235360539,7.22874549157471));
#1635=CARTESIAN_POINT('',(49.8701016195608,39.2351235360539,7.22874549157471));
#1636=CARTESIAN_POINT('',(74.7201016195886,11.985123536134,7.22874549157471));
#1637=CARTESIAN_POINT('Origin',(73.5201016195886,11.985123536134,7.22874549157471));
#1638=CARTESIAN_POINT('',(9.72010161958884,11.9851235361341,7.22874549157471));
#1639=CARTESIAN_POINT('Origin',(8.52010161958884,11.9851235361341,7.22874549157471));
#1640=CARTESIAN_POINT('Origin',(8.02010161958885,11.4851235361342,5.22874549157471));
#1641=CARTESIAN_POINT('',(4.02010161958886,11.4851235361341,5.52874549157471));
#1642=CARTESIAN_POINT('',(8.02010161958884,7.48512353613414,5.52874549157471));
#1643=CARTESIAN_POINT('Origin',(8.02010161958885,11.4851235361342,5.52874549157471));
#1644=CARTESIAN_POINT('',(8.02010161958884,7.48512353613414,5.22874549157471));
#1645=CARTESIAN_POINT('',(4.02010161958886,11.4851235361341,5.22874549157471));
#1646=CARTESIAN_POINT('Origin',(8.02010161958884,7.48512353613414,5.22874549157471));
#1647=CARTESIAN_POINT('',(74.0201016195886,7.48512353613402,5.52874549157471));
#1648=CARTESIAN_POINT('',(24.5201016195888,7.48512353613411,5.52874549157471));
#1649=CARTESIAN_POINT('',(74.0201016195886,7.48512353613402,5.22874549157471));
#1650=CARTESIAN_POINT('Origin',(74.0201016195886,11.4851235361341,5.22874549157471));
#1651=CARTESIAN_POINT('',(78.0201016195886,11.485123536134,5.52874549157471));
#1652=CARTESIAN_POINT('Origin',(74.0201016195886,11.4851235361341,5.52874549157471));
#1653=CARTESIAN_POINT('',(78.0201016195886,11.485123536134,5.22874549157471));
#1654=CARTESIAN_POINT('Origin',(62.3701016195608,39.2351235360539,5.22874549157471));
#1655=CARTESIAN_POINT('',(49.8701016195608,39.2351235360539,4.02874549157471));
#1656=CARTESIAN_POINT('',(49.8701016195608,39.2351235360539,5.22874549157471));
#1657=CARTESIAN_POINT('',(62.3701016195608,39.2351235360539,4.02874549157471));
#1658=CARTESIAN_POINT('',(62.3701016195608,39.2351235360539,5.22874549157471));
#1659=CARTESIAN_POINT('',(49.8701016195608,39.2351235360539,4.02874549157471));
#1660=CARTESIAN_POINT('Origin',(62.3701016195608,49.7351235360539,5.22874549157471));
#1661=CARTESIAN_POINT('',(62.3701016195608,44.485123536054,5.52874549157471));
#1662=CARTESIAN_POINT('',(62.3701016195608,44.485123536054,5.42874549157471));
#1663=CARTESIAN_POINT('',(62.3701016195608,43.1851235360539,5.52874549157471));
#1664=CARTESIAN_POINT('',(62.3701016195608,47.110123536094,5.52874549157471));
#1665=CARTESIAN_POINT('',(62.3701016195608,43.1851235360539,4.02874549157471));
#1666=CARTESIAN_POINT('',(62.3701016195608,43.1851235360539,5.22874549157471));
#1667=CARTESIAN_POINT('',(62.3701016195608,39.2351235360539,4.02874549157471));
#1668=CARTESIAN_POINT('Origin',(73.5201016195886,11.985123536134,5.22874549157471));
#1669=CARTESIAN_POINT('',(74.7201016195886,11.985123536134,5.52874549157471));
#1670=CARTESIAN_POINT('',(74.7201016195886,11.985123536134,5.22874549157471));
#1671=CARTESIAN_POINT('Origin',(73.5201016195886,11.985123536134,5.52874549157471));
#1672=CARTESIAN_POINT('Origin',(32.1701016196168,49.735123536054,5.22874549157471));
#1673=CARTESIAN_POINT('',(32.1701016196168,44.485123536054,5.52874549157471));
#1674=CARTESIAN_POINT('',(32.1701016196168,44.485123536054,5.42874549157471));
#1675=CARTESIAN_POINT('',(32.1701016196168,43.1851235360539,5.52874549157471));
#1676=CARTESIAN_POINT('',(32.1701016196168,47.110123536094,5.52874549157471));
#1677=CARTESIAN_POINT('',(32.1701016196168,43.185123536054,4.02874549157471));
#1678=CARTESIAN_POINT('',(32.1701016196168,43.185123536054,5.22874549157471));
#1679=CARTESIAN_POINT('',(32.1701016196168,39.235123536054,4.02874549157471));
#1680=CARTESIAN_POINT('',(32.1701016196168,39.235123536054,4.02874549157471));
#1681=CARTESIAN_POINT('',(32.1701016196168,39.235123536054,5.22874549157471));
#1682=CARTESIAN_POINT('Origin',(32.1701016196168,39.235123536054,5.22874549157471));
#1683=CARTESIAN_POINT('',(19.6701016196168,39.235123536054,4.02874549157471));
#1684=CARTESIAN_POINT('',(19.6701016196168,39.235123536054,5.22874549157471));
#1685=CARTESIAN_POINT('',(19.6701016196168,39.235123536054,4.02874549157471));
#1686=CARTESIAN_POINT('Origin',(19.6701016196168,39.235123536054,5.22874549157471));
#1687=CARTESIAN_POINT('',(19.6701016196168,44.485123536054,5.52874549157471));
#1688=CARTESIAN_POINT('',(19.6701016196168,44.485123536054,5.42874549157471));
#1689=CARTESIAN_POINT('',(19.6701016196168,43.185123536054,4.02874549157471));
#1690=CARTESIAN_POINT('',(19.6701016196168,49.735123536054,4.02874549157471));
#1691=CARTESIAN_POINT('',(19.6701016196168,43.185123536054,5.52874549157471));
#1692=CARTESIAN_POINT('',(19.6701016196168,43.185123536054,5.22874549157471));
#1693=CARTESIAN_POINT('',(19.6701016196168,41.860123536094,5.52874549157471));
#1694=CARTESIAN_POINT('Origin',(8.52010161958884,11.9851235361341,5.22874549157471));
#1695=CARTESIAN_POINT('',(9.72010161958884,11.9851235361341,5.52874549157471));
#1696=CARTESIAN_POINT('',(9.72010161958884,11.9851235361341,5.22874549157471));
#1697=CARTESIAN_POINT('Origin',(8.52010161958884,11.9851235361341,5.52874549157471));
#1698=CARTESIAN_POINT('Origin',(56.1201016196167,29.385123536054,4.02874549157471));
#1699=CARTESIAN_POINT('',(49.8701016195608,43.1851235360539,4.02874549157471));
#1700=CARTESIAN_POINT('',(49.8701016195608,49.7351235360539,4.02874549157471));
#1701=CARTESIAN_POINT('',(69.9201016196166,43.1851235360539,4.02874549157471));
#1702=CARTESIAN_POINT('',(59.2451016195887,43.1851235360539,4.02874549157471));
#1703=CARTESIAN_POINT('',(69.9201016196166,15.585123536054,4.02874549157471));
#1704=CARTESIAN_POINT('',(69.9201016196166,36.4351235360539,4.02874549157471));
#1705=CARTESIAN_POINT('',(42.3201016196167,15.585123536054,4.02874549157471));
#1706=CARTESIAN_POINT('',(63.1701016196166,15.585123536054,4.02874549157471));
#1707=CARTESIAN_POINT('',(42.3201016196168,43.1851235360539,4.02874549157471));
#1708=CARTESIAN_POINT('',(42.3201016196167,22.335123536054,4.02874549157471));
#1709=CARTESIAN_POINT('',(49.0701016196167,43.1851235360539,4.02874549157471));
#1710=CARTESIAN_POINT('Origin',(62.3701016195608,43.1851235360539,5.22874549157471));
#1711=CARTESIAN_POINT('',(69.9201016196166,43.1851235360539,5.52874549157471));
#1712=CARTESIAN_POINT('',(51.6951016195748,43.1851235360539,5.52874549157471));
#1713=CARTESIAN_POINT('',(69.9201016196166,43.1851235360539,5.22874549157471));
#1714=CARTESIAN_POINT('Origin',(69.9201016196166,43.4851235360539,5.22874549157471));
#1715=CARTESIAN_POINT('',(69.9201016196166,15.585123536054,5.52874549157471));
#1716=CARTESIAN_POINT('',(69.9201016196166,43.9851235360939,5.52874549157471));
#1717=CARTESIAN_POINT('',(69.9201016196166,15.585123536054,5.22874549157471));
#1718=CARTESIAN_POINT('Origin',(70.2201016196166,15.585123536054,5.22874549157471));
#1719=CARTESIAN_POINT('',(42.3201016196167,15.585123536054,5.52874549157471));
#1720=CARTESIAN_POINT('',(55.6201016196027,15.585123536054,5.52874549157471));
#1721=CARTESIAN_POINT('',(42.3201016196167,15.585123536054,5.22874549157471));
#1722=CARTESIAN_POINT('Origin',(42.3201016196167,15.285123536054,5.22874549157471));
#1723=CARTESIAN_POINT('',(42.3201016196168,43.1851235360539,5.52874549157471));
#1724=CARTESIAN_POINT('',(42.3201016196167,29.885123536094,5.52874549157471));
#1725=CARTESIAN_POINT('',(42.3201016196168,43.1851235360539,5.22874549157471));
#1726=CARTESIAN_POINT('Origin',(42.0201016196168,43.1851235360539,5.22874549157471));
#1727=CARTESIAN_POINT('',(49.8701016195608,43.1851235360539,5.52874549157471));
#1728=CARTESIAN_POINT('',(41.5201016196028,43.1851235360539,5.52874549157471));
#1729=CARTESIAN_POINT('',(49.8701016195608,43.1851235360539,5.22874549157471));
#1730=CARTESIAN_POINT('Origin',(25.9201016196168,29.385123536054,4.02874549157471));
#1731=CARTESIAN_POINT('',(39.7201016196168,43.1851235360539,4.02874549157471));
#1732=CARTESIAN_POINT('',(29.0451016196168,43.185123536054,4.02874549157471));
#1733=CARTESIAN_POINT('',(39.7201016196167,15.585123536054,4.02874549157471));
#1734=CARTESIAN_POINT('',(39.7201016196167,36.435123536054,4.02874549157471));
#1735=CARTESIAN_POINT('',(12.1201016196168,15.5851235360541,4.02874549157471));
#1736=CARTESIAN_POINT('',(32.9701016196167,15.5851235360541,4.02874549157471));
#1737=CARTESIAN_POINT('',(12.1201016196169,43.185123536054,4.02874549157471));
#1738=CARTESIAN_POINT('',(12.1201016196168,22.3351235360541,4.02874549157471));
#1739=CARTESIAN_POINT('',(18.8701016196168,43.185123536054,4.02874549157471));
#1740=CARTESIAN_POINT('Origin',(32.1701016196168,43.185123536054,5.22874549157471));
#1741=CARTESIAN_POINT('',(39.7201016196168,43.1851235360539,5.52874549157471));
#1742=CARTESIAN_POINT('',(36.5951016196028,43.185123536054,5.52874549157471));
#1743=CARTESIAN_POINT('',(39.7201016196168,43.1851235360539,5.22874549157471));
#1744=CARTESIAN_POINT('Origin',(39.7201016196168,43.4851235360539,5.22874549157471));
#1745=CARTESIAN_POINT('',(39.7201016196167,15.585123536054,5.52874549157471));
#1746=CARTESIAN_POINT('',(39.7201016196168,43.985123536094,5.52874549157471));
#1747=CARTESIAN_POINT('',(39.7201016196167,15.585123536054,5.22874549157471));
#1748=CARTESIAN_POINT('Origin',(40.0201016196167,15.585123536054,5.22874549157471));
#1749=CARTESIAN_POINT('',(12.1201016196168,15.5851235360541,5.52874549157471));
#1750=CARTESIAN_POINT('',(40.5201016196027,15.585123536054,5.52874549157471));
#1751=CARTESIAN_POINT('',(12.1201016196168,15.5851235360541,5.22874549157471));
#1752=CARTESIAN_POINT('Origin',(12.1201016196168,15.2851235360541,5.22874549157471));
#1753=CARTESIAN_POINT('',(12.1201016196169,43.185123536054,5.52874549157471));
#1754=CARTESIAN_POINT('',(12.1201016196168,29.8851235360941,5.52874549157471));
#1755=CARTESIAN_POINT('',(12.1201016196169,43.185123536054,5.22874549157471));
#1756=CARTESIAN_POINT('Origin',(11.8201016196169,43.185123536054,5.22874549157471));
#1757=CARTESIAN_POINT('',(26.4201016196029,43.185123536054,5.52874549157471));
#1758=CARTESIAN_POINT('Origin',(4.02010161958897,77.4851235361339,5.22874549157471));
#1759=CARTESIAN_POINT('',(4.02010161958891,44.485123536054,5.52874549157471));
#1760=CARTESIAN_POINT('',(4.02010161958891,44.485123536054,5.42874549157471));
#1761=CARTESIAN_POINT('',(4.02010161958894,60.985123536134,5.52874549157471));
#1762=CARTESIAN_POINT('Origin',(41.0201016195889,44.4851235361341,5.52874549157471));
#1763=CARTESIAN_POINT('',(49.8701016195608,44.485123536054,5.52874549157471));
#1764=CARTESIAN_POINT('',(41.0201016195889,44.485123536054,5.52874549157471));
#1765=CARTESIAN_POINT('',(49.8701016195608,41.860123536094,5.52874549157471));
#1766=CARTESIAN_POINT('',(78.0201016195887,44.485123536054,5.52874549157471));
#1767=CARTESIAN_POINT('',(41.0201016195889,44.485123536054,5.52874549157471));
#1768=CARTESIAN_POINT('',(78.0201016195887,27.985123536134,5.52874549157471));
#1769=CARTESIAN_POINT('',(41.0201016195889,44.485123536054,5.52874549157471));
#1770=CARTESIAN_POINT('Origin',(78.0201016195886,11.485123536134,5.22874549157471));
#1771=CARTESIAN_POINT('',(78.0201016195887,44.485123536054,5.42874549157471));
#1772=CARTESIAN_POINT('Origin',(49.8701016195608,39.2351235360539,5.22874549157471));
#1773=CARTESIAN_POINT('',(49.8701016195608,44.485123536054,5.42874549157471));
#1774=CARTESIAN_POINT('Origin',(41.0201016195889,44.485123536054,5.62874549157471));
#1775=CARTESIAN_POINT('Origin',(41.0201016195889,44.485123536054,5.62874549157471));
#1776=CARTESIAN_POINT('Origin',(41.0201016195889,44.485123536054,5.62874549157471));
#1777=CARTESIAN_POINT('Origin',(41.0201016195889,44.485123536054,5.62874549157471));
#1778=CARTESIAN_POINT('',(49.8701016195608,44.485123536054,7.22874549157471));
#1779=CARTESIAN_POINT('',(49.8701016195608,44.485123536054,5.52874549157471));
#1780=CARTESIAN_POINT('',(49.8701016195608,44.485123536054,5.42874549157471));
#1781=CARTESIAN_POINT('',(32.1701016196168,44.485123536054,7.22874549157471));
#1782=CARTESIAN_POINT('',(41.0201016195889,44.485123536054,7.22874549157471));
#1783=CARTESIAN_POINT('',(32.1701016196168,44.485123536054,5.52874549157471));
#1784=CARTESIAN_POINT('',(32.1701016196168,44.485123536054,5.42874549157471));
#1785=CARTESIAN_POINT('',(41.0201016195889,44.485123536054,5.52874549157471));
#1786=CARTESIAN_POINT('Origin',(41.0201016195889,44.485123536054,5.62874549157471));
#1787=CARTESIAN_POINT('',(78.0201016195887,44.485123536054,7.22874549157471));
#1788=CARTESIAN_POINT('',(78.0201016195887,44.485123536054,5.52874549157471));
#1789=CARTESIAN_POINT('',(78.0201016195887,44.485123536054,5.42874549157471));
#1790=CARTESIAN_POINT('',(62.3701016195608,44.485123536054,7.22874549157471));
#1791=CARTESIAN_POINT('',(41.0201016195889,44.485123536054,7.22874549157471));
#1792=CARTESIAN_POINT('',(62.3701016195608,44.485123536054,5.52874549157471));
#1793=CARTESIAN_POINT('',(62.3701016195608,44.485123536054,5.42874549157471));
#1794=CARTESIAN_POINT('',(41.0201016195889,44.485123536054,5.52874549157471));
#1795=CARTESIAN_POINT('Origin',(41.0201016195889,44.485123536054,5.62874549157471));
#1796=CARTESIAN_POINT('',(4.02010161958891,44.485123536054,5.52874549157471));
#1797=CARTESIAN_POINT('',(4.02010161958891,44.485123536054,7.22874549157471));
#1798=CARTESIAN_POINT('',(4.02010161958891,44.485123536054,5.42874549157471));
#1799=CARTESIAN_POINT('',(19.6701016196168,44.485123536054,5.52874549157471));
#1800=CARTESIAN_POINT('',(41.0201016195889,44.485123536054,5.52874549157471));
#1801=CARTESIAN_POINT('',(19.6701016196168,44.485123536054,7.22874549157471));
#1802=CARTESIAN_POINT('',(19.6701016196168,44.485123536054,5.42874549157471));
#1803=CARTESIAN_POINT('',(41.0201016195889,44.485123536054,7.22874549157471));
#1804=CARTESIAN_POINT('Origin',(32.1701016196168,49.735123536054,5.22874549157471));
#1805=CARTESIAN_POINT('',(32.1701016196168,49.735123536054,7.22874549157471));
#1806=CARTESIAN_POINT('',(32.1701016196168,39.235123536054,7.22874549157471));
#1807=CARTESIAN_POINT('',(32.1701016196168,49.735123536054,4.02874549157471));
#1808=CARTESIAN_POINT('',(32.1701016196168,49.735123536054,5.22874549157471));
#1809=CARTESIAN_POINT('',(32.1701016196168,45.7851235360539,4.02874549157471));
#1810=CARTESIAN_POINT('',(32.1701016196168,39.235123536054,4.02874549157471));
#1811=CARTESIAN_POINT('',(32.1701016196168,45.7851235360539,5.52874549157471));
#1812=CARTESIAN_POINT('',(32.1701016196168,45.785123536054,5.22874549157471));
#1813=CARTESIAN_POINT('',(32.1701016196168,47.110123536094,5.52874549157471));
#1814=CARTESIAN_POINT('Origin',(62.3701016195608,49.7351235360539,5.22874549157471));
#1815=CARTESIAN_POINT('',(62.3701016195608,49.7351235360539,7.22874549157471));
#1816=CARTESIAN_POINT('',(62.3701016195608,49.7351235360539,7.22874549157471));
#1817=CARTESIAN_POINT('',(62.3701016195608,49.7351235360539,4.02874549157471));
#1818=CARTESIAN_POINT('',(62.3701016195608,49.7351235360539,5.22874549157471));
#1819=CARTESIAN_POINT('',(62.3701016195608,45.7851235360539,4.02874549157471));
#1820=CARTESIAN_POINT('',(62.3701016195608,39.2351235360539,4.02874549157471));
#1821=CARTESIAN_POINT('',(62.3701016195608,45.7851235360539,5.52874549157471));
#1822=CARTESIAN_POINT('',(62.3701016195608,45.7851235360539,5.22874549157471));
#1823=CARTESIAN_POINT('',(62.3701016195608,47.110123536094,5.52874549157471));
#1824=CARTESIAN_POINT('Origin',(41.0201016195889,44.4851235361341,7.22874549157471));
#1825=CARTESIAN_POINT('',(49.8701016195608,49.7351235360539,7.22874549157471));
#1826=CARTESIAN_POINT('',(49.8701016195608,39.2351235360539,7.22874549157471));
#1827=CARTESIAN_POINT('',(49.8701016195608,49.7351235360539,7.22874549157471));
#1828=CARTESIAN_POINT('',(78.0201016195889,77.4851235361338,7.22874549157471));
#1829=CARTESIAN_POINT('',(78.0201016195886,11.485123536134,7.22874549157471));
#1830=CARTESIAN_POINT('',(74.0201016195887,81.4851235361339,7.22874549157471));
#1831=CARTESIAN_POINT('Origin',(74.0201016195887,77.485123536134,7.22874549157471));
#1832=CARTESIAN_POINT('',(8.02010161958897,81.4851235361339,7.22874549157471));
#1833=CARTESIAN_POINT('',(74.0201016195887,81.4851235361339,7.22874549157471));
#1834=CARTESIAN_POINT('',(4.02010161958904,77.4851235361339,7.22874549157471));
#1835=CARTESIAN_POINT('Origin',(8.02010161958904,77.4851235361339,7.22874549157471));
#1836=CARTESIAN_POINT('',(4.02010161958897,77.4851235361339,7.22874549157471));
#1837=CARTESIAN_POINT('',(19.6701016196168,49.735123536054,7.22874549157471));
#1838=CARTESIAN_POINT('',(19.6701016196168,49.735123536054,7.22874549157471));
#1839=CARTESIAN_POINT('',(32.1701016196168,49.735123536054,7.22874549157471));
#1840=CARTESIAN_POINT('',(74.7201016195887,76.9851235361338,7.22874549157471));
#1841=CARTESIAN_POINT('Origin',(73.5201016195887,76.9851235361338,7.22874549157471));
#1842=CARTESIAN_POINT('',(9.72010161958895,76.9851235361339,7.22874549157471));
#1843=CARTESIAN_POINT('Origin',(8.52010161958895,76.9851235361339,7.22874549157471));
#1844=CARTESIAN_POINT('Origin',(19.6701016196168,39.235123536054,5.22874549157471));
#1845=CARTESIAN_POINT('',(19.6701016196168,45.785123536054,5.52874549157471));
#1846=CARTESIAN_POINT('',(19.6701016196168,41.860123536094,5.52874549157471));
#1847=CARTESIAN_POINT('',(19.6701016196168,45.785123536054,4.02874549157471));
#1848=CARTESIAN_POINT('',(19.6701016196168,45.785123536054,5.22874549157471));
#1849=CARTESIAN_POINT('',(19.6701016196168,49.735123536054,4.02874549157471));
#1850=CARTESIAN_POINT('',(19.6701016196168,49.735123536054,4.02874549157471));
#1851=CARTESIAN_POINT('',(19.6701016196168,49.735123536054,5.22874549157471));
#1852=CARTESIAN_POINT('Origin',(40.0201016196168,45.7851235360539,5.22874549157471));
#1853=CARTESIAN_POINT('',(39.7201016196168,45.7851235360539,5.52874549157471));
#1854=CARTESIAN_POINT('',(40.5201016196028,45.7851235360539,5.52874549157471));
#1855=CARTESIAN_POINT('',(39.7201016196168,45.7851235360539,4.02874549157471));
#1856=CARTESIAN_POINT('',(32.9701016196168,45.7851235360539,4.02874549157471));
#1857=CARTESIAN_POINT('',(39.7201016196168,45.7851235360539,5.22874549157471));
#1858=CARTESIAN_POINT('Origin',(39.7201016196168,73.6851235360538,5.22874549157471));
#1859=CARTESIAN_POINT('',(39.7201016196168,73.3851235360538,5.52874549157471));
#1860=CARTESIAN_POINT('',(39.7201016196168,59.085123536094,5.52874549157471));
#1861=CARTESIAN_POINT('',(39.7201016196168,73.3851235360538,4.02874549157471));
#1862=CARTESIAN_POINT('',(39.7201016196168,66.6351235360539,4.02874549157471));
#1863=CARTESIAN_POINT('',(39.7201016196168,73.3851235360538,5.22874549157471));
#1864=CARTESIAN_POINT('Origin',(11.8201016196169,73.3851235360539,5.22874549157471));
#1865=CARTESIAN_POINT('',(12.1201016196169,73.3851235360539,5.52874549157471));
#1866=CARTESIAN_POINT('',(26.4201016196029,73.3851235360539,5.52874549157471));
#1867=CARTESIAN_POINT('',(12.1201016196169,73.3851235360539,4.02874549157471));
#1868=CARTESIAN_POINT('',(18.8701016196169,73.3851235360539,4.02874549157471));
#1869=CARTESIAN_POINT('',(12.1201016196169,73.3851235360539,5.22874549157471));
#1870=CARTESIAN_POINT('Origin',(12.1201016196169,45.485123536054,5.22874549157471));
#1871=CARTESIAN_POINT('',(12.1201016196169,45.785123536054,5.52874549157471));
#1872=CARTESIAN_POINT('',(12.1201016196169,44.9851235360941,5.52874549157471));
#1873=CARTESIAN_POINT('',(12.1201016196169,45.785123536054,4.02874549157471));
#1874=CARTESIAN_POINT('',(12.1201016196169,52.535123536054,4.02874549157471));
#1875=CARTESIAN_POINT('',(12.1201016196169,45.785123536054,5.22874549157471));
#1876=CARTESIAN_POINT('Origin',(19.6701016196168,45.785123536054,5.22874549157471));
#1877=CARTESIAN_POINT('',(30.3451016196028,45.785123536054,5.52874549157471));
#1878=CARTESIAN_POINT('',(22.7951016196168,45.785123536054,4.02874549157471));
#1879=CARTESIAN_POINT('Origin',(25.9201016196168,59.5851235360539,4.02874549157471));
#1880=CARTESIAN_POINT('',(32.1701016196168,49.735123536054,4.02874549157471));
#1881=CARTESIAN_POINT('Origin',(70.2201016196167,45.7851235360539,5.22874549157471));
#1882=CARTESIAN_POINT('',(69.9201016196166,45.7851235360539,5.52874549157471));
#1883=CARTESIAN_POINT('',(55.6201016196027,45.7851235360539,5.52874549157471));
#1884=CARTESIAN_POINT('',(69.9201016196166,45.7851235360539,4.02874549157471));
#1885=CARTESIAN_POINT('',(63.1701016196167,45.7851235360539,4.02874549157471));
#1886=CARTESIAN_POINT('',(69.9201016196167,45.7851235360539,5.22874549157471));
#1887=CARTESIAN_POINT('Origin',(69.9201016196167,73.6851235360538,5.22874549157471));
#1888=CARTESIAN_POINT('',(69.9201016196167,73.3851235360538,5.52874549157471));
#1889=CARTESIAN_POINT('',(69.9201016196167,59.0851235360939,5.52874549157471));
#1890=CARTESIAN_POINT('',(69.9201016196167,73.3851235360538,4.02874549157471));
#1891=CARTESIAN_POINT('',(69.9201016196167,66.6351235360538,4.02874549157471));
#1892=CARTESIAN_POINT('',(69.9201016196167,73.3851235360538,5.22874549157471));
#1893=CARTESIAN_POINT('Origin',(42.0201016196168,73.3851235360539,5.22874549157471));
#1894=CARTESIAN_POINT('',(42.3201016196168,73.3851235360539,5.52874549157471));
#1895=CARTESIAN_POINT('',(41.5201016196029,73.3851235360539,5.52874549157471));
#1896=CARTESIAN_POINT('',(42.3201016196168,73.3851235360539,4.02874549157471));
#1897=CARTESIAN_POINT('',(49.0701016196168,73.3851235360538,4.02874549157471));
#1898=CARTESIAN_POINT('',(42.3201016196168,73.3851235360538,5.22874549157471));
#1899=CARTESIAN_POINT('Origin',(42.3201016196168,45.4851235360539,5.22874549157471));
#1900=CARTESIAN_POINT('',(42.3201016196168,45.7851235360539,5.52874549157471));
#1901=CARTESIAN_POINT('',(42.3201016196168,44.985123536094,5.52874549157471));
#1902=CARTESIAN_POINT('',(42.3201016196168,45.7851235360539,4.02874549157471));
#1903=CARTESIAN_POINT('',(42.3201016196168,52.5351235360539,4.02874549157471));
#1904=CARTESIAN_POINT('',(42.3201016196168,45.7851235360539,5.22874549157471));
#1905=CARTESIAN_POINT('Origin',(49.8701016195608,45.7851235360539,5.22874549157471));
#1906=CARTESIAN_POINT('',(49.8701016195608,45.7851235360539,5.52874549157471));
#1907=CARTESIAN_POINT('',(45.4451016195748,45.7851235360539,5.52874549157471));
#1908=CARTESIAN_POINT('',(49.8701016195608,45.7851235360539,4.02874549157471));
#1909=CARTESIAN_POINT('',(52.9951016195888,45.7851235360539,4.02874549157471));
#1910=CARTESIAN_POINT('',(49.8701016195608,45.7851235360539,5.22874549157471));
#1911=CARTESIAN_POINT('Origin',(56.1201016196167,59.5851235360539,4.02874549157471));
#1912=CARTESIAN_POINT('',(49.8701016195608,49.7351235360539,4.02874549157471));
#1913=CARTESIAN_POINT('',(62.3701016195608,49.7351235360539,4.02874549157471));
#1914=CARTESIAN_POINT('',(49.8701016195608,49.7351235360539,4.02874549157471));
#1915=CARTESIAN_POINT('Origin',(19.6701016196168,49.735123536054,5.22874549157471));
#1916=CARTESIAN_POINT('Origin',(73.5201016195887,76.9851235361338,5.22874549157471));
#1917=CARTESIAN_POINT('',(74.7201016195887,76.9851235361338,5.52874549157471));
#1918=CARTESIAN_POINT('',(74.7201016195887,76.9851235361338,5.22874549157471));
#1919=CARTESIAN_POINT('Origin',(73.5201016195887,76.9851235361338,5.52874549157471));
#1920=CARTESIAN_POINT('Origin',(49.8701016195608,49.7351235360539,5.22874549157471));
#1921=CARTESIAN_POINT('',(49.8701016195608,49.7351235360539,5.22874549157471));
#1922=CARTESIAN_POINT('Origin',(49.8701016195608,39.2351235360539,5.22874549157471));
#1923=CARTESIAN_POINT('',(49.8701016195608,41.860123536094,5.52874549157471));
#1924=CARTESIAN_POINT('Origin',(8.52010161958895,76.9851235361339,5.22874549157471));
#1925=CARTESIAN_POINT('',(9.72010161958895,76.9851235361339,5.52874549157471));
#1926=CARTESIAN_POINT('',(9.72010161958895,76.9851235361339,5.22874549157471));
#1927=CARTESIAN_POINT('Origin',(8.52010161958895,76.9851235361339,5.52874549157471));
#1928=CARTESIAN_POINT('Origin',(74.0201016195887,81.4851235361339,5.22874549157471));
#1929=CARTESIAN_POINT('',(74.0201016195887,81.4851235361339,5.52874549157471));
#1930=CARTESIAN_POINT('',(8.02010161958897,81.4851235361339,5.52874549157471));
#1931=CARTESIAN_POINT('',(57.5201016195888,81.4851235361339,5.52874549157471));
#1932=CARTESIAN_POINT('',(8.02010161958897,81.4851235361339,5.22874549157471));
#1933=CARTESIAN_POINT('',(74.0201016195887,81.4851235361339,5.22874549157471));
#1934=CARTESIAN_POINT('Origin',(74.0201016195887,77.485123536134,5.22874549157471));
#1935=CARTESIAN_POINT('',(78.0201016195889,77.4851235361338,5.52874549157471));
#1936=CARTESIAN_POINT('Origin',(74.0201016195887,77.485123536134,5.52874549157471));
#1937=CARTESIAN_POINT('',(78.0201016195889,77.4851235361338,5.22874549157471));
#1938=CARTESIAN_POINT('Origin',(78.0201016195886,11.485123536134,5.22874549157471));
#1939=CARTESIAN_POINT('',(78.0201016195887,27.985123536134,5.52874549157471));
#1940=CARTESIAN_POINT('Origin',(4.02010161958897,77.4851235361339,5.22874549157471));
#1941=CARTESIAN_POINT('',(4.02010161958904,77.4851235361339,5.52874549157471));
#1942=CARTESIAN_POINT('',(4.02010161958904,77.4851235361339,5.22874549157471));
#1943=CARTESIAN_POINT('',(4.02010161958894,60.985123536134,5.52874549157471));
#1944=CARTESIAN_POINT('Origin',(8.02010161958904,77.4851235361339,5.22874549157471));
#1945=CARTESIAN_POINT('Origin',(8.02010161958904,77.4851235361339,5.52874549157471));
#1946=CARTESIAN_POINT('Origin',(41.0201016195889,44.4851235361341,5.52874549157471));
#1947=UNCERTAINTY_MEASURE_WITH_UNIT(LENGTH_MEASURE(0.01),#1951,
'DISTANCE_ACCURACY_VALUE',
'Maximum model space distance between geometric entities at asserted c
onnectivities');
#1948=UNCERTAINTY_MEASURE_WITH_UNIT(LENGTH_MEASURE(0.01),#1951,
'DISTANCE_ACCURACY_VALUE',
'Maximum model space distance between geometric entities at asserted c
onnectivities');
#1949=(
GEOMETRIC_REPRESENTATION_CONTEXT(3)
GLOBAL_UNCERTAINTY_ASSIGNED_CONTEXT((#1947))
GLOBAL_UNIT_ASSIGNED_CONTEXT((#1951,#1953,#1954))
REPRESENTATION_CONTEXT('','3D')
);
#1950=(
GEOMETRIC_REPRESENTATION_CONTEXT(3)
GLOBAL_UNCERTAINTY_ASSIGNED_CONTEXT((#1948))
GLOBAL_UNIT_ASSIGNED_CONTEXT((#1951,#1953,#1954))
REPRESENTATION_CONTEXT('','3D')
);
#1951=(
LENGTH_UNIT()
NAMED_UNIT(*)
SI_UNIT(.MILLI.,.METRE.)
);
#1952=(
LENGTH_UNIT()
NAMED_UNIT(*)
SI_UNIT($,.METRE.)
);
#1953=(
NAMED_UNIT(*)
PLANE_ANGLE_UNIT()
SI_UNIT($,.RADIAN.)
);
#1954=(
NAMED_UNIT(*)
SI_UNIT($,.STERADIAN.)
SOLID_ANGLE_UNIT()
);
#1955=SHAPE_DEFINITION_REPRESENTATION(#1956,#1957);
#1956=PRODUCT_DEFINITION_SHAPE('',$,#1959);
#1957=SHAPE_REPRESENTATION('',(#1223),#1949);
#1958=PRODUCT_DEFINITION_CONTEXT('part definition',#1963,'design');
#1959=PRODUCT_DEFINITION('Component5','og front BACK plate  4square',#1960,
#1958);
#1960=PRODUCT_DEFINITION_FORMATION('',$,#1965);
#1961=PRODUCT_RELATED_PRODUCT_CATEGORY('og front BACK plate  4square',
'og front BACK plate  4square',(#1965));
#1962=APPLICATION_PROTOCOL_DEFINITION('international standard',
'automotive_design',2009,#1963);
#1963=APPLICATION_CONTEXT(
'Core Data for Automotive Mechanical Design Process');
#1964=PRODUCT_CONTEXT('part definition',#1963,'mechanical');
#1965=PRODUCT('Component5','og front BACK plate  4square',$,(#1964));
#1966=PRESENTATION_STYLE_ASSIGNMENT((#1967));
#1967=SURFACE_STYLE_USAGE(.BOTH.,#1968);
#1968=SURFACE_SIDE_STYLE('',(#1969));
#1969=SURFACE_STYLE_FILL_AREA(#1970);
#1970=FILL_AREA_STYLE('Steel - Satin',(#1971));
#1971=FILL_AREA_STYLE_COLOUR('Steel - Satin',#1972);
#1972=COLOUR_RGB('Steel - Satin',0.627450980392157,0.627450980392157,0.627450980392157);
ENDSEC;
END-ISO-10303-21;
